<svg xmlns="http://www.w3.org/2000/svg" viewBox="0 0 1024 691" preserveAspectRatio="none">
<g id="aafb3406-dc17-4659-9f97-d26b6ba92c62" data-name="Capa 2">
<g id="b2f90f57-5d7d-4a21-bcd6-2e8af827543d" data-name="Capa 1">
<path d="M0,0V481.33C131.76,611,312.53,691,512,691s380.24-80,512-209.67V0Z" style="fill:#32bab0"/>
<path d="M155.9,447.76a59.07,59.07,0,0,0,59.27-59.27V314.05H179.61v74.44a23.71,23.71,0,0,1-47.42,0V314.05H96.63v74.44a59.07,59.07,0,0,0,59.27,59.27Z" style="fill:#fff;stroke:#fff;stroke-miterlimit:10;stroke-width:0.5px"/>
<path d="M371.91,354.11a67.07,67.07,0,0,0-36-36,66,66,0,0,0-26.32-5.22,66.79,66.79,0,0,0-26.32,5.22,73.27,73.27,0,0,0-21.57,14.46A67.31,67.31,0,0,0,242,380.43V481.18L277.55,493V439.93a59.91,59.91,0,0,0,5.69,2.61,66.17,66.17,0,0,0,52.64,0,64.89,64.89,0,0,0,21.57-14.46,69.31,69.31,0,0,0,14.46-21.34,66.89,66.89,0,0,0,5.22-26.31,66.13,66.13,0,0,0-5.22-26.32Zm-62.34,58.33a32,32,0,1,1,32-32,32.19,32.19,0,0,1-32,32Z" style="fill:#fff;stroke:#fff;stroke-miterlimit:10;stroke-width:0.5px"/>
<path d="M503.47,332.07a66.29,66.29,0,1,0-17.3,106.44,30.83,30.83,0,0,1-51,14l-24.65,25.84a66.52,66.52,0,0,0,112.38-48.13V379a65.78,65.78,0,0,0-19.45-46.94Zm-46.94,77.76A30.94,30.94,0,1,1,487.36,379a31,31,0,0,1-30.83,30.82Z" style="fill:#fff;stroke:#fff;stroke-miterlimit:10;stroke-width:0.5px"/>
<path d="M585.81,446.09V387.78a41.53,41.53,0,0,1,41.48-41.49V310.73a76.74,76.74,0,0,0-54.52,22.76,75.29,75.29,0,0,0-22.53,54.29V446.1Z" style="fill:#fff;stroke:#fff;stroke-miterlimit:10;stroke-width:0.5px"/>
<path d="M730.32,312.63l.23,7.58A68.38,68.38,0,0,0,700,312.87a66.79,66.79,0,0,0-26.32,5.22,73.08,73.08,0,0,0-21.57,14.46,70.11,70.11,0,0,0-14.46,21.57,68.94,68.94,0,0,0,0,52.63,67.07,67.07,0,0,0,36,36A71.33,71.33,0,0,0,700,448a68.38,68.38,0,0,0,30.58-7.34l-.23,5.44h35.56V312.63Zm-14.23,95.31a31.78,31.78,0,0,1-16.12,4.5,32,32,0,1,1,0-64,29.77,29.77,0,0,1,17.31,5.22,28.61,28.61,0,0,1,11.61,13.27A29.75,29.75,0,0,1,732,380.43a32.24,32.24,0,0,1-4.26,16.13,29.84,29.84,0,0,1-11.62,11.38Z" style="fill:#fff;stroke:#fff;stroke-miterlimit:10;stroke-width:0.5px"/>
<path d="M922.15,354.11a67.07,67.07,0,0,0-36-36,66,66,0,0,0-26.33-5.22,66.78,66.78,0,0,0-26.31,5.22,73.27,73.27,0,0,0-21.57,14.46,67.2,67.2,0,0,0-19.68,47.89V481.18L827.79,493V439.93a59.91,59.91,0,0,0,5.69,2.61,66.17,66.17,0,0,0,52.64,0,65.09,65.09,0,0,0,21.57-14.46,69.31,69.31,0,0,0,14.46-21.34,66.89,66.89,0,0,0,5.22-26.31,66.13,66.13,0,0,0-5.22-26.32Zm-62.36,58.33a32,32,0,1,1,32-32,32.19,32.19,0,0,1-32,32Z" style="fill:#fff;stroke:#fff;stroke-miterlimit:10;stroke-width:0.5px"/>
<path d="M581.93,169.78a75.38,75.38,0,0,1-143.29,40.56,60.56,60.56,0,1,0-25.72,4.24,100.75,100.75,0,0,0,194.9-35.84,103,103,0,0,0-.7-11.94Zm-201-15.7a35.23,35.23,0,1,1,35.23,35.22A35.26,35.26,0,0,1,381,154.08" style="fill:#fff;stroke:#fff;stroke-miterlimit:10;stroke-width:0.5px"/>
<path d="M661.43,136.27,603.66,94c-3.69-2.7-10.53-2.64-14.23,0l-59.18,42.27c-6.18,4.42-9.14,12.29-5,19.28,3.57,6.11,13,9.5,19.28,5.06l52-37.13,50.75,37.13c6.14,4.49,15.71,1,19.27-5.06,4.18-7.14,1.11-14.77-5.05-19.28" style="fill:#fff;stroke:#fff;stroke-miterlimit:10;stroke-width:0.5px"/>
</g>
</g>
</svg>