<svg width="32" height="32" viewBox="0 0 32 32" fill="none" xmlns="http://www.w3.org/2000/svg">
<path d="M30.7918 13.218L17.7394 13.2174C17.163 13.2174 16.6958 13.6845 16.6958 14.2609V18.4306C16.6958 19.0068 17.163 19.4741 17.7393 19.4741H25.0896C24.2848 21.5629 22.7825 23.3122 20.8659 24.4237L24.0001 29.8493C29.0277 26.9416 32.0001 21.8398 32.0001 16.1287C32.0001 15.3155 31.9401 14.7342 31.8202 14.0796C31.7291 13.5823 31.2974 13.218 30.7918 13.218Z" fill="#167EE6"/>
<path d="M16.0001 25.739C12.403 25.739 9.26279 23.7737 7.57623 20.8654L2.15088 23.9925C4.91181 28.7776 10.0839 31.9999 16.0001 31.9999C18.9024 31.9999 21.641 31.2185 24.0001 29.8567V29.8492L20.8659 24.4236C19.4323 25.2551 17.7733 25.739 16.0001 25.739Z" fill="#12B347"/>
<path d="M24 29.8568V29.8493L20.8658 24.4237C19.4322 25.2551 17.7733 25.7391 16 25.7391V32C18.9023 32 21.641 31.2186 24 29.8568Z" fill="#0F993E"/>
<path d="M6.26085 16C6.26085 14.2269 6.74473 12.5681 7.57603 11.1346L2.15068 8.00745C0.781372 10.3591 0 13.0903 0 16C0 18.9097 0.781372 21.6409 2.15068 23.9926L7.57603 20.8654C6.74473 19.4319 6.26085 17.7731 6.26085 16Z" fill="#FFD500"/>
<path d="M16.0001 6.26087C18.3458 6.26087 20.5004 7.09437 22.1834 8.4808C22.5986 8.8228 23.202 8.79811 23.5823 8.4178L26.5367 5.46343C26.9682 5.03193 26.9374 4.32562 26.4765 3.92575C23.6568 1.47956 19.9881 0 16.0001 0C10.0839 0 4.91181 3.22231 2.15088 8.00743L7.57623 11.1346C9.26279 8.22624 12.403 6.26087 16.0001 6.26087Z" fill="#FF4B26"/>
<path d="M22.1832 8.4808C22.5984 8.8228 23.2019 8.79811 23.5822 8.4178L26.5365 5.46343C26.968 5.03193 26.9372 4.32562 26.4763 3.92575C23.6567 1.4795 19.9879 0 16 0V6.26087C18.3456 6.26087 20.5003 7.09437 22.1832 8.4808Z" fill="#D93F21"/>
</svg>
