<svg xmlns="http://www.w3.org/2000/svg" viewBox="0 0 1007.14 225.72"><g id="ab53dee8-5c1f-4c94-b8c3-50fe52988d6c" data-name="Capa 2"><g id="bbc9e065-d406-4248-838f-655eb684f4df" data-name="Capa 3"><path d="M72.07,166.29a71.56,71.56,0,0,0,71.81-71.81V4.27H100.79V94.48a28.73,28.73,0,0,1-57.45,0V4.27H.25V94.48a71.56,71.56,0,0,0,71.82,71.81Z" style="fill:#32bab0;stroke:#fff;stroke-miterlimit:10;stroke-width:0.5px"/><path d="M333.81,52.81A89.09,89.09,0,0,0,316.3,26.67,89.11,89.11,0,0,0,290.15,9.15a80,80,0,0,0-31.89-6.32,80.94,80.94,0,0,0-31.88,6.32,88.93,88.93,0,0,0-26.14,17.52,85.19,85.19,0,0,0-17.52,26.14,85.19,85.19,0,0,0-6.33,31.9V206.8l43.09,14.36V156.81a71.72,71.72,0,0,0,6.9,3.16,80.21,80.21,0,0,0,63.77,0,78.94,78.94,0,0,0,26.15-17.52,84,84,0,0,0,17.51-25.86,80.73,80.73,0,0,0,6.33-31.88,79.86,79.86,0,0,0-6.33-31.9Zm-75.54,70.68a38.79,38.79,0,1,1,38.78-38.78,39,39,0,0,1-38.78,38.78Z" style="fill:#32bab0;stroke:#fff;stroke-miterlimit:10;stroke-width:0.5px"/><path d="M493.24,26.1a80.32,80.32,0,1,0-21,129A37.35,37.35,0,0,1,410.5,172l-29.88,31.31A80.6,80.6,0,0,0,516.8,145V83A79.72,79.72,0,0,0,493.24,26.1Zm-56.88,94.23A37.49,37.49,0,1,1,473.71,83a37.51,37.51,0,0,1-37.35,37.34Z" style="fill:#32bab0;stroke:#fff;stroke-miterlimit:10;stroke-width:0.5px"/><path d="M593,164.28V93.61a50.33,50.33,0,0,1,50.27-50.27V.25a93.09,93.09,0,0,0-66.07,27.57,91.26,91.26,0,0,0-27.29,65.79v70.68Z" style="fill:#32bab0;stroke:#fff;stroke-miterlimit:10;stroke-width:0.5px"/><path d="M768.12,2.55l.28,9.19a82.8,82.8,0,0,0-37.06-8.9,80.9,80.9,0,0,0-31.88,6.32,89.11,89.11,0,0,0-26.15,17.52,85.25,85.25,0,0,0-17.52,26.14,86.33,86.33,0,0,0-6.32,31.9,86.23,86.23,0,0,0,6.32,31.88,88.73,88.73,0,0,0,17.52,26.14,88.91,88.91,0,0,0,26.15,17.52,86.2,86.2,0,0,0,31.88,6.33,82.94,82.94,0,0,0,37.06-8.9l-.28,6.6h43.09V2.55ZM750.88,118a38.53,38.53,0,0,1-19.54,5.46,38.79,38.79,0,0,1,0-77.57,36.08,36.08,0,0,1,21,6.32,34.79,34.79,0,0,1,14.07,16.09,36,36,0,0,1,3.73,16.37A39.09,39.09,0,0,1,765,104.25,36.17,36.17,0,0,1,750.88,118Z" style="fill:#32bab0;stroke:#fff;stroke-miterlimit:10;stroke-width:0.5px"/><path d="M1000.57,52.81a89.13,89.13,0,0,0-17.52-26.14A89.19,89.19,0,0,0,956.91,9.15,80,80,0,0,0,925,2.83a80.94,80.94,0,0,0-31.88,6.32A88.93,88.93,0,0,0,867,26.67a85.22,85.22,0,0,0-17.53,26.14,85.57,85.57,0,0,0-6.32,31.9V206.8l43.09,14.36V156.81a72.85,72.85,0,0,0,6.9,3.16,80.23,80.23,0,0,0,63.78,0,79,79,0,0,0,26.14-17.52,84,84,0,0,0,17.52-25.86,80.9,80.9,0,0,0,6.32-31.88,80,80,0,0,0-6.32-31.9ZM925,123.49A38.79,38.79,0,1,1,963.8,84.71,39,39,0,0,1,925,123.49Z" style="fill:#32bab0;stroke:#fff;stroke-miterlimit:10;stroke-width:0.5px"/></g></g></svg>