<svg xmlns="http://www.w3.org/2000/svg" viewBox="0 0 1007.14 490.77"><g id="acc1a65e-c12b-4dca-9656-d623252d4f07" data-name="Capa 2"><g id="a1f37fa7-1223-4df4-9142-e90884d75ebd" data-name="Capa 1"><path d="M72.07,431.34a71.56,71.56,0,0,0,71.81-71.82v-90.2H100.79v90.2a28.73,28.73,0,1,1-57.45,0v-90.2H.25v90.2a71.56,71.56,0,0,0,71.82,71.82Z" style="fill:#000;stroke:#000;stroke-miterlimit:10;stroke-width:0.5px"/><path d="M333.81,317.86a81.14,81.14,0,0,0-43.66-43.66,80,80,0,0,0-31.89-6.32,80.94,80.94,0,0,0-31.88,6.32,88.93,88.93,0,0,0-26.14,17.52,81.61,81.61,0,0,0-23.85,58V471.85l43.09,14.36V421.86a71.72,71.72,0,0,0,6.9,3.16,80.21,80.21,0,0,0,63.77,0A78.94,78.94,0,0,0,316.3,407.5a84,84,0,0,0,17.51-25.86,80.73,80.73,0,0,0,6.33-31.88,79.86,79.86,0,0,0-6.33-31.9Zm-75.54,70.68a38.79,38.79,0,1,1,38.78-38.78,39,39,0,0,1-38.78,38.78Z" style="fill:#fff;stroke:#fff;stroke-miterlimit:10;stroke-width:0.5px"/><path d="M493.24,291.15a80.32,80.32,0,1,0-21,129,37.35,37.35,0,0,1-61.77,16.95L380.62,468.4A80.6,80.6,0,0,0,516.8,410.08V348a79.72,79.72,0,0,0-23.56-56.88Zm-56.88,94.23A37.49,37.49,0,1,1,473.71,348a37.52,37.52,0,0,1-37.35,37.35Z" style="fill:#fff;stroke:#fff;stroke-miterlimit:10;stroke-width:0.5px"/><path d="M593,429.33V358.66a50.33,50.33,0,0,1,50.27-50.27V265.3a93.09,93.09,0,0,0-66.07,27.57,91.26,91.26,0,0,0-27.29,65.79v70.68Z" style="fill:#fff;stroke:#fff;stroke-miterlimit:10;stroke-width:0.5px"/><path d="M768.12,267.6l.28,9.19a82.8,82.8,0,0,0-37.06-8.9,80.9,80.9,0,0,0-31.88,6.32,89.11,89.11,0,0,0-26.15,17.52,85.25,85.25,0,0,0-17.52,26.14,83.62,83.62,0,0,0,0,63.78,81.21,81.21,0,0,0,43.67,43.66,86.2,86.2,0,0,0,31.88,6.33,82.94,82.94,0,0,0,37.06-8.9l-.28,6.6h43.09V267.6ZM750.88,383.09a38.53,38.53,0,0,1-19.54,5.46,38.79,38.79,0,0,1,0-77.57,36.08,36.08,0,0,1,21,6.32,34.79,34.79,0,0,1,14.07,16.09,36,36,0,0,1,3.73,16.37A39.09,39.09,0,0,1,765,369.3a36.17,36.17,0,0,1-14.08,13.79Z" style="fill:#fff;stroke:#fff;stroke-miterlimit:10;stroke-width:0.5px"/><path d="M1000.57,317.86a81.23,81.23,0,0,0-43.66-43.66,80,80,0,0,0-31.9-6.32,80.94,80.94,0,0,0-31.88,6.32A88.93,88.93,0,0,0,867,291.72a81.5,81.5,0,0,0-23.85,58V471.85l43.09,14.36V421.86a72.85,72.85,0,0,0,6.9,3.16,80.23,80.23,0,0,0,63.78,0,79,79,0,0,0,26.14-17.52,84,84,0,0,0,17.52-25.86,80.9,80.9,0,0,0,6.32-31.88,80,80,0,0,0-6.32-31.9ZM925,388.54a38.79,38.79,0,1,1,38.79-38.78A39,39,0,0,1,925,388.54Z" style="fill:#fff;stroke:#fff;stroke-miterlimit:10;stroke-width:0.5px"/><path d="M588.31,94.5a93.21,93.21,0,0,1,.64,10.85A91.45,91.45,0,0,1,497.6,196.7c-35.86,0-68.21-21.45-82.93-53a73.4,73.4,0,1,0-31.15,5.13,122.07,122.07,0,0,0,236.16-43.43,124.6,124.6,0,0,0-.85-14.47Zm-243.53-19a42.69,42.69,0,1,1,42.69,42.69,42.73,42.73,0,0,1-42.69-42.69" style="fill:#fff;stroke:#fff;stroke-miterlimit:10;stroke-width:0.5px"/><path d="M684.64,53.9l-70-51.22c-4.47-3.27-12.76-3.2-17.24,0L525.69,53.9c-7.49,5.35-11.08,14.89-6.12,23.36,4.33,7.41,15.81,11.51,23.36,6.13l63-45,61.49,45c7.45,5.44,19,1.25,23.36-6.13,5.06-8.65,1.34-17.9-6.13-23.36" style="fill:#fff;stroke:#fff;stroke-miterlimit:10;stroke-width:0.5px"/></g></g></svg>