<svg xmlns="http://www.w3.org/2000/svg" viewBox="0 0 828.53 1022"><g id="f7115541-b826-401b-81f3-bd6378e664e2" data-name="Capa 2"><g id="e6004360-d900-4278-8292-575c9bc0e9c8" data-name="Capa 1"><path d="M228.33,744.84l-24.45,15.3A138,138,0,1,0,225.25,774Z" style="fill:#fafafa"/><path d="M228.33,744.84c-.2,1.73-1,10.23-2.8,29.15v-.22a137,137,0,0,1,20.18,19.46,134,134,0,0,1,10.4,14c1.74,2.55,3.14,5.41,4.77,8.25a75.56,75.56,0,0,1,4.63,8.88c1.37,3.14,2.8,6.37,4.2,9.65l3.37,10.48.87,2.81c.19.92.39,1.85.61,2.8.39,1.88.79,3.76,1.21,5.61s.89,3.81,1.15,5.8l.67,6a139.53,139.53,0,0,1-30.25,103.26l-2.36,3-2.8,2.8-5.35,5.61-1.35,1.4L234,984.88l-3,2.58-6,5.18-6.58,4.52a77.07,77.07,0,0,1-6.73,4.48l-7.12,4-3.59,2c-1.24.59-2.5,1.1-3.76,1.66l-7.62,3.3a26.52,26.52,0,0,1-3.93,1.46l-4,1.26c-2.8.82-5.33,1.8-8.07,2.44l-8.42,1.77c-1.37.31-2.8.62-4.17.87l-4.26.48-8.58,1c-2.81,0-5.78,0-8.69.17h-4.38c-1.46,0-2.8-.2-4.34-.28L122,1021c-2.8-.34-5.8-1-8.75-1.49A143.26,143.26,0,0,1,96,1015.18c-2.81-.89-5.61-2.1-8.41-3.16l-4.24-1.63a42.39,42.39,0,0,1-4.06-2l-8.13-4.07c-2.81-1.51-5.19-3.22-7.8-4.82l-3.87-2.47c-1.26-.84-2.44-1.85-3.64-2.8l-7.18-5.52c-2.27-2-4.43-4.18-6.61-6.26l-3.29-3.11c-1.06-1-2-2.24-3-3.36l-5.86-6.81c-1.88-2.33-3.45-4.85-5.19-7.27a128.47,128.47,0,0,1-9.2-15.11,68.2,68.2,0,0,1-3.73-7.93c-1.14-2.66-2.35-5.33-3.42-8l-2.6-8.24-1.32-4.1c-.37-1.37-.59-2.8-.9-4.17L1.75,906c-.54-2.81-.71-5.61-1-8.41l-.48-4.18L0,891.27V880.78a59.7,59.7,0,0,1,.42-8.24l.67-8.16c.48-2.66.95-5.33,1.46-8a56.51,56.51,0,0,1,1.68-7.85A122.35,122.35,0,0,1,9,833.48l2.8-7.26c1.09-2.32,2.3-4.59,3.42-6.89a138.33,138.33,0,0,1,36.45-45.09,158,158,0,0,1,22.43-14.83c3.92-1.87,7.71-3.92,11.63-5.41,2-.75,3.87-1.65,5.83-2.3l5.83-2a139.42,139.42,0,0,1,80.72-.62A151.11,151.11,0,0,1,204,759.67h-.25l24.61-14.83L204,760.37h-.14a149.76,149.76,0,0,0-25.82-10.29,139,139,0,0,0-80.21.92l-5.77,2c-1.94.64-3.84,1.54-5.78,2.29-3.9,1.49-7.62,3.54-11.52,5.42a158.72,158.72,0,0,0-22.21,14.74,136.75,136.75,0,0,0-36.13,44.86c-1.12,2.27-2.3,4.54-3.4,6.84s-1.85,4.79-2.8,7.21a118.09,118.09,0,0,0-4.68,14.94A59.89,59.89,0,0,0,3.76,857c-.47,2.61-.92,5.24-1.4,7.9s-.45,5.36-.67,8.08a55.21,55.21,0,0,0-.39,8.13v10.32l.22,2.07L2,897.6c.36,2.81.5,5.61,1,8.41s1.17,5.61,1.76,8.25c.31,1.37.56,2.8.9,4.14L7,922.47c.84,2.8,1.71,5.41,2.58,8.16a80.92,80.92,0,0,0,3.39,7.9,59.18,59.18,0,0,0,3.7,7.85,126.77,126.77,0,0,0,9.08,15c1.74,2.35,3.28,4.87,5.16,7.17l5.81,6.73c1,1.12,1.9,2.3,2.94,3.34l3.25,3.08c2.19,2.05,4.32,4.15,6.56,6.17l7.12,5.61c1.21.89,2.36,1.87,3.62,2.8L64,998.67c2.58,1.6,5.08,3.28,7.68,4.77l8,4a42.81,42.81,0,0,0,4,1.94L88,1011c2.81,1,5.61,2.25,8.41,3.14a146.33,146.33,0,0,0,17.13,4.27c2.81.47,5.75,1.15,8.64,1.45l8.69.73c1.43,0,2.8.31,4.32.28h4.32c2.8,0,5.74,0,8.6-.14l8.41-.92,4.24-.48,4.15-.84,8.21-1.74c2.8-.64,5.36-1.65,8-2.44l4-1.26a21.4,21.4,0,0,0,3.87-1.43l7.54-3.25c1.24-.53,2.53-1,3.73-1.65l3.56-2,7.07-3.92c2.35-1.26,4.43-3,6.64-4.46l6.65-4.85,5.94-5.13,3-2.55,1.46-1.26,1.34-1.41,5.3-5.6,2.64-2.81,2.35-3a138.54,138.54,0,0,0,30.23-102.27q-.35-3-.65-6c-.19-2-.78-3.84-1.15-5.75l-1.18-5.61-.58-2.8-.85-2.8c-1.14-3.56-2.24-7-3.33-10.43l-4.12-9.42a77,77,0,0,0-4.54-8.86c-1.63-2.81-3-5.61-4.71-8.22a136.41,136.41,0,0,0-10.27-14A138.42,138.42,0,0,0,225,774v-.14C227.13,755.1,228.05,746.6,228.33,744.84Z" style="fill:#263238"/><path d="M217.2,911.65l3.39,26.69,40.68-34.71L283.56,909s-23,48.2-41.1,67.29-28,21.81-34.76,22.12c-9.4.42-13.71-11-13.71-11L189.89,921Z" style="fill:#b78876"/><path d="M220.42,937.61a18.7,18.7,0,0,0-2.8,6.67,17.7,17.7,0,0,0-1,7.18,61.1,61.1,0,0,0,1.88-6.93A54.76,54.76,0,0,0,220.42,937.61Z" style="fill:#995037"/><path d="M265.23,836h30.64a7.76,7.76,0,0,1,7.22,6.33,7.64,7.64,0,0,1-.13,3.43l-30.84,60a7,7,0,0,1-2.56,2.77,7.06,7.06,0,0,1-3.63,1H228.56a5.42,5.42,0,0,1-2.43-.92,5.38,5.38,0,0,1-2.31-4.48,5.5,5.5,0,0,1,.67-2.51l29.75-58.88a12.15,12.15,0,0,1,11-6.78Z" style="fill:#455a64"/><path d="M267.3,839.6h30.64a5.13,5.13,0,0,1,2.51.65,5.2,5.2,0,0,1,1.87,1.8,5.1,5.1,0,0,1,.19,5l-30.08,58.71a7,7,0,0,1-6.22,3.79H229.28a3.12,3.12,0,0,1-1.5-.35,3.19,3.19,0,0,1-1.14-1.05,3,3,0,0,1-.16-3L256.2,846.3a12.24,12.24,0,0,1,11.1-6.7Z" style="fill:#263238"/><path d="M269.88,864.18l18.64,7.43,4,15-9,22.43-33.08,4.74,9.67-9.87-1.26-8.58s-9.2-2.8-9.42-4.29,1.15-6.11,2.55-6.36a71.1,71.1,0,0,1,11,3.36s-11.41-9-11.08-10.49,1.55-5.15,3.82-5.6,20.69,8.24,20.69,8.24l3,6.84,2.6-10.91S265.84,871.61,269.88,864.18Z" style="fill:#b78876"/><path d="M267.55,899.4a4.62,4.62,0,0,0,.62-1.85,9.8,9.8,0,0,0-.56-4.71,9.57,9.57,0,0,0-2.64-3.93c-.92-.81-1.62-1.09-1.68-1a21.19,21.19,0,0,1,3.42,5.27A20.5,20.5,0,0,1,267.55,899.4Z" style="fill:#995037"/><path d="M276.41,896.23a40.22,40.22,0,0,1-.75-4.88,21.6,21.6,0,0,0-.93-5.41,8.32,8.32,0,0,0-1.71-2.8A8.62,8.62,0,0,0,270,881.2c-4.45-1.6-8.41-2.8-11.41-3.87a25.11,25.11,0,0,0-4.82-1.32,26.66,26.66,0,0,0,4.6,2c2.8,1.12,6.9,2.55,11.21,4.12a8,8,0,0,1,2.81,1.68,7.23,7.23,0,0,1,1.54,2.55,22.94,22.94,0,0,1,1.09,5.19A9.79,9.79,0,0,0,276.41,896.23Z" style="fill:#995037"/><path d="M280.67,892.78c.29,0,.23-1.68,0-3.67a7.69,7.69,0,0,0-1.06-3.53,13.94,13.94,0,0,0,1.18,7.2Z" style="fill:#995037"/><path d="M277.28,854.82a3.9,3.9,0,1,0-3.9-3.9A3.91,3.91,0,0,0,277.28,854.82Z" style="fill:#fafafa"/><path d="M166.74,692.94c10.31,28,21.75,57.78,45.78,75.7a12.7,12.7,0,0,1-9.25-1.32A107.08,107.08,0,0,1,216.53,794c2.8,9.59,2.44,20.44-2.95,28.8-.64-1.07-1.29-2.13-1.9-3.2a50.07,50.07,0,0,1-21.62,55.32c-7.88,4.76-18.42,7.06-26.16,2-5.88-3.81-8.66-10.82-11.07-17.38L105.56,731.69c-4.4-11.86-8.86-24.45-6.67-36.93a36.45,36.45,0,0,1,65.77-14.41" style="fill:#263238"/><path d="M194.24,850a7,7,0,0,0,.78-.79,26.57,26.57,0,0,0,2-2.49A34,34,0,0,0,201.81,836a46.18,46.18,0,0,0,.92-17.25,75.34,75.34,0,0,0-6-20.35c-3-6.9-6.36-13.23-9.25-19a156.54,156.54,0,0,1-6.95-15.75,73.81,73.81,0,0,1-3.14-11.22c-.51-2.8-.67-4.23-.76-4.2a6.61,6.61,0,0,0,0,1.09,26.65,26.65,0,0,0,.37,3.17,67.58,67.58,0,0,0,2.8,11.21,145.63,145.63,0,0,0,6.81,15.9c2.81,5.86,6.2,12.17,9.17,19a78.4,78.4,0,0,1,6,20.1,47.08,47.08,0,0,1-.76,17,35,35,0,0,1-4.48,10.59A42.87,42.87,0,0,1,194.24,850Z" style="fill:#455a64"/><path d="M135.25,677.1a39.93,39.93,0,0,1,38.05,39.7c0,16.48-.23,34.43-1.29,45.08-2.44,24.76-21.06,29-21.06,29s.59,15.39,1.43,30c.79,14-10.62,26.13-25.48,27.34s-27.34-8.92-28.35-22.66l-5.07-106.7a39.88,39.88,0,0,1,41.66-41.72Z" style="fill:#b78876"/><path d="M164.49,726.56a3.15,3.15,0,0,1-2.8,3.36,3,3,0,0,1-1.2-.08,2.9,2.9,0,0,1-1.07-.53,3,3,0,0,1-.78-.91,2.89,2.89,0,0,1-.37-1.14,3.14,3.14,0,0,1,2.8-3.34,2.86,2.86,0,0,1,1.2.07,3,3,0,0,1,1.07.52,3.13,3.13,0,0,1,.79.91A3,3,0,0,1,164.49,726.56Z" style="fill:#263238"/><path d="M167.58,722.86c-.37.42-2.81-1.18-6.25-1s-5.75,2-6.14,1.66.16-.93,1.17-1.8a8.87,8.87,0,0,1,4.91-1.82,8.44,8.44,0,0,1,5,1.29C167.35,721.93,167.75,722.66,167.58,722.86Z" style="fill:#263238"/><path d="M129.25,729.58a3.1,3.1,0,0,1-.73,2.24,3.15,3.15,0,0,1-2.07,1.1,3,3,0,0,1-2.26-.6,3.09,3.09,0,0,1-.79-.9,3.06,3.06,0,0,1-.37-1.14,3.18,3.18,0,0,1,2.8-3.36,3,3,0,0,1,1.2.08,2.9,2.9,0,0,1,1.07.53,3.13,3.13,0,0,1,.79.91A3,3,0,0,1,129.25,729.58Z" style="fill:#263238"/><path d="M132.34,726.19c-.37.42-2.81-1.2-6.26-1s-5.74,2-6.14,1.65.14-1,1.18-1.79a9,9,0,0,1,4.91-1.85,8.17,8.17,0,0,1,5,1.32C132.11,725.21,132.5,726,132.34,726.19Z" style="fill:#263238"/><path d="M146.1,750.44a22.63,22.63,0,0,1,5.44-1.32c.87-.14,1.66-.36,1.77-1a4.53,4.53,0,0,0-.73-2.55l-3-6.39a115.84,115.84,0,0,1-6.76-16.82,113.4,113.4,0,0,1,8.11,16.29l2.8,6.47a5,5,0,0,1,.67,3.37,2.1,2.1,0,0,1-1.34,1.34,5.59,5.59,0,0,1-1.46.31A21.33,21.33,0,0,1,146.1,750.44Z" style="fill:#263238"/><path d="M151.06,791a67.37,67.37,0,0,1-33.64-7.37s9.14,17.63,33.81,14.44Z" style="fill:#995037"/><path d="M121.15,716.8c.42.59,2.8-.45,5.94-1.09s5.75-.87,5.86-1.57-2.8-1.74-6.42-.93S120.73,716.24,121.15,716.8Z" style="fill:#263238"/><path d="M154.68,710.66c.17.7,2.94.62,6.28.67s6.08.2,6.28-.5-2.55-2-6.25-2.05S154.51,710,154.68,710.66Z" style="fill:#263238"/><path d="M58.66,827.54s8.72-17.3,3.28-32.83-3.37-27.19,4.48-33.31c5.61-4.29,6.17-11.35,5.61-17a111.14,111.14,0,0,1,.62-28.17c2.19-13.43,6.11-27.7,14.18-38.24,10.49-13.74,29.47-26.25,45.23-19.24,7.31,3.26,11,3.06,18.7,9.93,0,0,7,.45,10.73,1,12.82,2,21.11,15.64,22.6,25.65,3.48,23.18-9.31,29.77-10.62,45.53,0,0-2.3-32.83-5.19-41.24a28,28,0,0,0-12.59-14.47c-9.48.9-13.06,6.51-16.12,15.48s-4.74,16.12-12.25,21.95c-7.09,5.61-12.2,14.69-25.23,10a27.48,27.48,0,0,0-2.61,15.61c1.4,8,10.26,10.21,8,23.75S97,796.7,97.21,801.78" style="fill:#263238"/><path d="M142,758.63a5,5,0,0,0-2.15-1.36,5.21,5.21,0,0,0-2.54-.16,4.46,4.46,0,0,0-1.72.66,4.51,4.51,0,0,0-1.33,1.28,2.8,2.8,0,0,0,0,3.36,3.41,3.41,0,0,0,3.76.65,10.67,10.67,0,0,0,3.42-2.41,3.22,3.22,0,0,0,.73-.87,1,1,0,0,0,0-1.07" style="fill:#995037"/><path d="M134.61,754.34c.45,0,.67,3,3.45,5s6,1.38,6,1.82-.67.65-2,.79a7.6,7.6,0,0,1-5-1.35,6.62,6.62,0,0,1-2.8-4.17C134.1,755.12,134.38,754.34,134.61,754.34Z" style="fill:#263238"/><path d="M85.07,680.49A166,166,0,0,1,69.34,702c-6.22,6.87-12.42,14.72-12.87,24-.31,6.72,2.47,13.79-.19,20-2.3,5.28-7.85,8.19-12,12.14A28.43,28.43,0,0,0,36.76,786c1.8,6.2,5.78,12.28,4.38,18.59-1.24,5.61-6.34,9.45-7.88,14.89s.47,10.65,2.8,15.5c3.53,7.4,8.78,15.06,16.82,16.82a19.48,19.48,0,0,0,8.29-.26,19.78,19.78,0,0,0,7.44-3.66A39,39,0,0,0,79.1,835a78.73,78.73,0,0,0,9.47-30.53c1.21-12.82-.73-25.66-2-38.44a364,364,0,0,1,0-70.48c.53-5.61,2.81-11.22-1.46-15.09" style="fill:#263238"/><path d="M107.5,736.42c0-1.62-4.32-4.62-6-4.59-3.75,0-9.84,1.85-9.92,12.25-.14,14.86,14,10.51,14,10.06A113.29,113.29,0,0,0,107.5,736.42Z" style="fill:#b78876"/><path d="M102.17,748.45a4.9,4.9,0,0,1-.7.37,2.57,2.57,0,0,1-1.94,0,6.43,6.43,0,0,1-2.8-5.78,8.73,8.73,0,0,1,.76-3.7,3,3,0,0,1,.75-1.21,2.94,2.94,0,0,1,1.21-.75,1.39,1.39,0,0,1,.9.09,1.37,1.37,0,0,1,.64.64c.17.42,0,.7.17.73s.31-.23.2-.85a1.78,1.78,0,0,0-.56-1,2.08,2.08,0,0,0-1.43-.39,3.57,3.57,0,0,0-1.7.77,3.69,3.69,0,0,0-1.11,1.5,8.78,8.78,0,0,0-1,4.15,6.72,6.72,0,0,0,3.73,6.45,2.77,2.77,0,0,0,2.35-.37C102.14,748.82,102.23,748.48,102.17,748.45Z" style="fill:#995037"/><path d="M178.18,730.65a14.21,14.21,0,0,0-.79-2.47,29.07,29.07,0,0,1-.93-7,70.8,70.8,0,0,1,1-10.48,69.72,69.72,0,0,0,1-13,26.22,26.22,0,0,0-1.27-6.68,18.55,18.55,0,0,0-3.11-5.6,21.16,21.16,0,0,0-8.61-6.28,18.59,18.59,0,0,0-7-1.35,9.17,9.17,0,0,0-2,0,2,2,0,0,0-.68.14h2.61a20.66,20.66,0,0,1,15.06,7.8,19,19,0,0,1,2.94,5.32,24.68,24.68,0,0,1,1.18,6.48,72.61,72.61,0,0,1-.93,12.84,64.8,64.8,0,0,0-.78,10.6,24.54,24.54,0,0,0,1.2,7.06,17.87,17.87,0,0,0,.79,1.8C178,730.48,178.15,730.82,178.18,730.65Z" style="fill:#455a64"/><path d="M93.48,753.25a5.21,5.21,0,0,0-1,1.26,8.14,8.14,0,0,0-1.1,4.2,7.12,7.12,0,0,0,.94,3.19,7,7,0,0,0,2.29,2.42,8,8,0,0,0,3.75,1.44,8.08,8.08,0,0,0,4-.54,7.83,7.83,0,0,0,4.55-6.34,6.44,6.44,0,0,0-.65-3.48,7.17,7.17,0,0,0-1.93-2.38,6.81,6.81,0,0,0-4-1.54,2.83,2.83,0,0,0-1.57.28h1.54a7.06,7.06,0,0,1,3.7,1.65,6.19,6.19,0,0,1,1.74,2.4,6.11,6.11,0,0,1,.42,2.93,7.18,7.18,0,0,1-4.09,5.61,7.44,7.44,0,0,1-7-.79,6.55,6.55,0,0,1-2.09-2.1,6.69,6.69,0,0,1-1-2.8,8.52,8.52,0,0,1,.81-4A9.82,9.82,0,0,1,93.48,753.25Z" style="fill:#32bab0"/><path d="M56.78,744.84a4,4,0,0,1,.22-1.29,20,20,0,0,1,1.49-3.42,31,31,0,0,1,9.36-10,22.16,22.16,0,0,1,8.86-3.59,52.55,52.55,0,0,1,10.85-.53,78.91,78.91,0,0,0,11.81-.14,27.37,27.37,0,0,0,11.55-4.29,106.39,106.39,0,0,0,9.81-8,48.11,48.11,0,0,0,8.41-8.28c4.68-6,9.14-11.21,12.56-15.75a85.69,85.69,0,0,0,7.46-11.22c1.51-2.8,2.07-4.51,2.21-4.45a5.05,5.05,0,0,1-.31,1.26,37.1,37.1,0,0,1-1.37,3.45,73.51,73.51,0,0,1-7.15,11.6c-3.36,4.71-7.76,10-12.33,16a48.62,48.62,0,0,1-8.41,8.55,102.31,102.31,0,0,1-9.93,8.19,28.46,28.46,0,0,1-12.2,4.46,75,75,0,0,1-12,0,51.07,51.07,0,0,0-10.63.39A20.91,20.91,0,0,0,68.64,731a32.09,32.09,0,0,0-9.45,9.37A34.79,34.79,0,0,0,56.78,744.84Z" style="fill:#455a64"/><path d="M136.68,847c5.33-16.41,18.42-33.11,32.8-27.09,16,6.7,20.44,15.2,29.22,28.38s14,28.23,19.43,43.11c2.07,5.84,12.89,32.55,9.7,37.88-2.81,4.57-29.92,38.83-35.08,40.2-13.31,3.54-14-45.83-27.61-43.31-5.44,1-11.41,1.85-16.21-.87-6.11-3.45-8-11.21-9.25-18.11Q133,871,126.28,834.55" style="fill:#32bab0"/><path d="M151.37,813.38l21,9.09c10.65,8.41,13.65,22.71,13.29,36.22l8,112.14.71,38.78s-62,33.64-131.18-9.93l11.52-30.56-21-72.89c-1.52-10.63-2.44-32.69.33-43.15,7.13-26.86,26.19-34.88,45.73-40.26,0,0,19.63,16.4,38.66,12.95C138.53,825.75,150.17,824.65,151.37,813.38Z" style="fill:#32bab0"/><g style="opacity:0.20000000298023224"><path d="M180.39,935.48l-36.45,52.79c-4.73,6.87-9.67,14-16.82,18.42a32.23,32.23,0,0,1-34.45-.34c-10.1-6.75-19.07-24.86-16.83-36.81.26-1.43,5,1.18,5,1.18a6.08,6.08,0,0,1,3-1.45,6.16,6.16,0,0,1,3.27.27,34,34,0,0,1,6,3c11.41,6.06,25.93,2.81,36.67-4.43s18.61-17.88,26.83-27.89a27,27,0,0,1,10.85-9.14c4.48-1.66,10.45-.31,12.36,4.09" style="opacity:0.20000000298023224;isolation:isolate"/></g><path d="M117.56,924.26l3.2,12.37,63.89-46.57,19.63-27.81a17.79,17.79,0,0,1,24.64-4.35l18.2,12.93s-.51,9.81-4.91,7.85-13.29-6.87-13.29-6.87l-2.44,23.52-10.82,7.85-10.82,8.41-72.11,71.69a32.21,32.21,0,0,1-51.45-8.41L70.57,944.51Z" style="fill:#b78876"/><path d="M122.36,934.92a6.36,6.36,0,0,0-2.67,1.65,14,14,0,0,0-3.75,6.62,26,26,0,0,0-.68,7.51,9.35,9.35,0,0,0,.37,3.11,11,11,0,0,0,.31-3.08,35.09,35.09,0,0,1,1-7.29,15.47,15.47,0,0,1,3.28-6.39C121.51,935.65,122.44,935.06,122.36,934.92Z" style="fill:#995037"/><path d="M229,873.18a6.4,6.4,0,0,0-1-1.9A8.7,8.7,0,0,0,224,868a5.17,5.17,0,0,0-2.7-.19,5.07,5.07,0,0,0-2.43,1.2c-1.07,1-1,2-.93,2a5.55,5.55,0,0,1,1.35-1.46,5.09,5.09,0,0,1,4.4-.59,9.72,9.72,0,0,1,3.84,2.81C228.36,872.65,228.86,873.27,229,873.18Z" style="fill:#995037"/><path d="M217.54,879.41l1.48-.82a7.32,7.32,0,0,1,3.68-1,7.63,7.63,0,0,1,3.67,1c.87.48,1.34.93,1.46.84s-.23-.7-1.1-1.4a6.5,6.5,0,0,0-4-1.43,6.64,6.64,0,0,0-4.07,1.4C217.76,878.76,217.45,879.41,217.54,879.41Z" style="fill:#995037"/><path d="M92.69,814.28c-14.35,6-29.32,12.42-39.25,24.42s-13.62,28.74-12.89,44.52.64,30.56,5.21,45.7c1.77,5.91,5.61,20.35,8.75,26.88,3.7,7.41,21.11,15.28,29.46,15.09,13.77-.34,20.36-26.27,32.78-32.24,5-2.39,12.73-12.84,15-17.89,2.8-6.39-5.61-18.5-8.66-24.81L90.84,829.53" style="fill:#32bab0"/><path d="M119.3,936.94a4,4,0,0,1,.39-1.21,11.55,11.55,0,0,0,.87-3.42,6.18,6.18,0,0,0-.46-2.62,6.38,6.38,0,0,0-1.5-2.2,7.81,7.81,0,0,0-3.15-1.58,7.89,7.89,0,0,0-3.52,0h-.54v-.56a41.93,41.93,0,0,0-5.15-14.63,40.9,40.9,0,0,0-12.59-13.54,56.67,56.67,0,0,0-18.73-7.69A110.17,110.17,0,0,0,58.35,887c-4.77-.33-8.63-.28-11.21-.25a24.31,24.31,0,0,1-4.18,0,21.51,21.51,0,0,1,4.15-.59A86.44,86.44,0,0,1,58.49,886a99.09,99.09,0,0,1,16.82,2.13,56.07,56.07,0,0,1,19.26,7.79,41.34,41.34,0,0,1,13,14,40.78,40.78,0,0,1,5,15.17l-.62-.48a8.84,8.84,0,0,1,7.46,2.08,6.93,6.93,0,0,1,2,5.6,10.67,10.67,0,0,1-1.2,3.51C119.58,936.6,119.36,937,119.3,936.94Z" style="fill:#263238"/><path d="M88.57,948.09a73,73,0,0,1,24-22.28c.25.36-5.61,4.71-12.26,10.85S88.91,948.35,88.57,948.09Z" style="fill:#263238"/><g style="opacity:0.30000001192092896"><path d="M111.84,924.88a68,68,0,0,0-16.26,8.61,24.51,24.51,0,0,0-9.7,15.19l5.3-4.87a192.09,192.09,0,0,1,22.06-18.2" style="opacity:0.30000001192092896;isolation:isolate"/></g><path d="M186,887.82a15.15,15.15,0,0,1,1-5.41,72.06,72.06,0,0,1,5.13-12.23c4.76-9.19,10.15-15.75,10.54-15.42a35.42,35.42,0,0,1-2.8,4.71c-1.77,2.81-4.1,6.87-6.48,11.39a126,126,0,0,0-5.44,11.88A30.53,30.53,0,0,1,186,887.82Z" style="fill:#263238"/><path d="M194.41,1000.69a10.92,10.92,0,0,1-.42-3c-.2-2-.4-4.77-.56-8.24-.37-7-.65-16.6-.7-27.23s0-20.27.33-27.22c0-3.5.23-6.31.37-8.24a11,11,0,0,1,.33-3,11.85,11.85,0,0,1,.23,3v35.46c0,10.41.19,19.88.25,27.2v8.24A11.85,11.85,0,0,1,194.41,1000.69Z" style="fill:#263238"/><path d="M168.78,880.14a54,54,0,0,1-1.62-7.32,58.24,58.24,0,0,1-1.15-7.43,50.66,50.66,0,0,1,1.65,7.32A54.59,54.59,0,0,1,168.78,880.14Z" style="fill:#ebebeb"/><path d="M173.32,870.21a27.37,27.37,0,0,1-5.6,2.3,30.6,30.6,0,0,1-5.81,1.57,50.84,50.84,0,0,1,5.61-2.05A47,47,0,0,1,173.32,870.21Z" style="fill:#ebebeb"/><path d="M164.94,878.37a39.64,39.64,0,0,1,2.13-5.78,35.92,35.92,0,0,1,2.58-5.6,35.86,35.86,0,0,1-2.1,5.77A36.18,36.18,0,0,1,164.94,878.37Z" style="fill:#ebebeb"/><path d="M173.27,877a92.9,92.9,0,0,1-10.68-7.83,43.73,43.73,0,0,1,5.6,3.7A41.09,41.09,0,0,1,173.27,877Z" style="fill:#ebebeb"/><path d="M185.44,966.32a55.74,55.74,0,0,1-1.66-7.32,56.45,56.45,0,0,1-1.12-7.43,55.64,55.64,0,0,1,1.63,7.32A53.14,53.14,0,0,1,185.44,966.32Z" style="fill:#ebebeb"/><path d="M190,956.51a45.73,45.73,0,0,1-11.21,3.84,46.14,46.14,0,0,1,5.6-2A44.22,44.22,0,0,1,190,956.51Z" style="fill:#ebebeb"/><path d="M181.6,964.66a35.86,35.86,0,0,1,2.1-5.77,38.45,38.45,0,0,1,2.58-5.61,36.36,36.36,0,0,1-2.11,5.78A38.29,38.29,0,0,1,181.6,964.66Z" style="fill:#ebebeb"/><path d="M189.89,963.26a42.92,42.92,0,0,1-5.46-3.7,38.17,38.17,0,0,1-5.19-4.12,45.52,45.52,0,0,1,5.61,3.73A45,45,0,0,1,189.89,963.26Z" style="fill:#ebebeb"/><path d="M209.32,932.34a54.22,54.22,0,0,1-1.65-7.35,54.83,54.83,0,0,1-1.12-7.43,59.88,59.88,0,0,1,1.62,7.35A64.09,64.09,0,0,1,209.32,932.34Z" style="fill:#ebebeb"/><path d="M213.84,922.41a29.41,29.41,0,0,1-5.61,2.3,26.55,26.55,0,0,1-5.8,1.54,49.9,49.9,0,0,1,5.6-2A44.9,44.9,0,0,1,213.84,922.41Z" style="fill:#ebebeb"/><path d="M205.45,930.54a77.56,77.56,0,0,1,4.71-11.35,35.37,35.37,0,0,1-2.1,5.78A36.19,36.19,0,0,1,205.45,930.54Z" style="fill:#ebebeb"/><path d="M213.78,929.17a42.47,42.47,0,0,1-5.61-3.7,43.57,43.57,0,0,1-5.07-4,42.47,42.47,0,0,1,5.61,3.7A43.57,43.57,0,0,1,213.78,929.17Z" style="fill:#ebebeb"/><path d="M176.35,847.81a54.32,54.32,0,0,1-1.62-7.34,56.22,56.22,0,0,1-1.15-7.41,57.36,57.36,0,0,1,1.65,7.32A54.83,54.83,0,0,1,176.35,847.81Z" style="fill:#ebebeb"/><path d="M180.89,837.89a29.71,29.71,0,0,1-5.6,2.3,27.66,27.66,0,0,1-5.81,1.54q5.6-2.18,11.36-3.84Z" style="fill:#ebebeb"/><path d="M172.51,846a37.4,37.4,0,0,1,2.27-5.88,36,36,0,0,1,2.58-5.61,35.86,35.86,0,0,1-2.1,5.77A39.05,39.05,0,0,1,172.51,846Z" style="fill:#ebebeb"/><path d="M180.84,844.64a41.82,41.82,0,0,1-5.61-3.7,44.69,44.69,0,0,1-5.19-4.12,41.82,41.82,0,0,1,5.61,3.7A43.86,43.86,0,0,1,180.84,844.64Z" style="fill:#ebebeb"/><path d="M144.42,908.31a55.93,55.93,0,0,1-1.63-7.34,54.37,54.37,0,0,1-1.15-7.41,56.1,56.1,0,0,1,1.66,7.32A54.83,54.83,0,0,1,144.42,908.31Z" style="fill:#ebebeb"/><path d="M149,898.39a30.48,30.48,0,0,1-5.61,2.3,27.57,27.57,0,0,1-5.8,1.54,47.07,47.07,0,0,1,5.61-2.05A46.84,46.84,0,0,1,149,898.39Z" style="fill:#ebebeb"/><path d="M140.58,906.52a71.19,71.19,0,0,1,4.71-11.22,39.64,39.64,0,0,1-2.13,5.78A36.56,36.56,0,0,1,140.58,906.52Z" style="fill:#ebebeb"/><path d="M148.91,905.14a41.82,41.82,0,0,1-5.61-3.7,42.86,42.86,0,0,1-5.19-4.12,44.56,44.56,0,0,1,5.61,3.7A44.69,44.69,0,0,1,148.91,905.14Z" style="fill:#ebebeb"/><path d="M149.55,988.21a55.49,55.49,0,0,1-1.63-7.31,54.9,54.9,0,0,1-1.15-7.43,104,104,0,0,1,2.78,14.74Z" style="fill:#ebebeb"/><path d="M154.15,978.29a27.69,27.69,0,0,1-5.61,2.3,26.47,26.47,0,0,1-5.8,1.57,46.3,46.3,0,0,1,5.6-2A53.56,53.56,0,0,1,154.15,978.29Z" style="fill:#ebebeb"/><path d="M145.77,986.45a76.59,76.59,0,0,1,4.71-11.36,38.56,38.56,0,0,1-2.14,5.78A34.77,34.77,0,0,1,145.77,986.45Z" style="fill:#ebebeb"/><path d="M154.09,985.07a41.72,41.72,0,0,1-5.6-3.7,42.09,42.09,0,0,1-5.19-4.12,43.49,43.49,0,0,1,5.61,3.7A43.76,43.76,0,0,1,154.09,985.07Z" style="fill:#ebebeb"/><path d="M177.11,1008a57,57,0,0,1-1.65-7.32,54.61,54.61,0,0,1-1.13-7.43,53,53,0,0,1,1.63,7.35A57.78,57.78,0,0,1,177.11,1008Z" style="fill:#ebebeb"/><path d="M181.62,998a27.37,27.37,0,0,1-5.6,2.3,31.57,31.57,0,0,1-5.81,1.57,48.88,48.88,0,0,1,5.61-2A51.93,51.93,0,0,1,181.62,998Z" style="fill:#ebebeb"/><path d="M173.24,1006.18a42.47,42.47,0,0,1,2.13-5.77A38.45,38.45,0,0,1,178,994.8a37,37,0,0,1-2.1,5.78A36.07,36.07,0,0,1,173.24,1006.18Z" style="fill:#ebebeb"/><path d="M181.57,1004.81a44.56,44.56,0,0,1-5.61-3.7,43.86,43.86,0,0,1-5.19-4.12,41.82,41.82,0,0,1,5.61,3.7A43.86,43.86,0,0,1,181.57,1004.81Z" style="fill:#ebebeb"/><path d="M124.32,1018.32a52.33,52.33,0,0,1-1.66-7.34,56.45,56.45,0,0,1-1.12-7.43,63.69,63.69,0,0,1,1.63,7.34A58.79,58.79,0,0,1,124.32,1018.32Z" style="fill:#ebebeb"/><path d="M128.94,1008.37a29.06,29.06,0,0,1-5.6,2.3,26.49,26.49,0,0,1-5.81,1.54c3.68-1.44,7.43-2.72,11.22-3.84Z" style="fill:#ebebeb"/><path d="M120.56,1016.53a42.6,42.6,0,0,1,2.13-5.78,38.34,38.34,0,0,1,2.58-5.6,35.53,35.53,0,0,1-2.1,5.74A36.49,36.49,0,0,1,120.56,1016.53Z" style="fill:#ebebeb"/><path d="M128.89,1015.16a43.84,43.84,0,0,1-5.61-3.7,43.73,43.73,0,0,1-5.19-4.13,43.84,43.84,0,0,1,5.61,3.7A42.94,42.94,0,0,1,128.89,1015.16Z" style="fill:#ebebeb"/><path d="M79.46,1002.12a55.71,55.71,0,0,1-1.63-7.35,52.89,52.89,0,0,1-1.14-7.43,61.9,61.9,0,0,1,1.65,7.35A54.83,54.83,0,0,1,79.46,1002.12Z" style="fill:#ebebeb"/><path d="M83.92,992.19a29.15,29.15,0,0,1-5.61,2.3,27.15,27.15,0,0,1-5.8,1.55,45.83,45.83,0,0,1,5.61-2A48.65,48.65,0,0,1,83.92,992.19Z" style="fill:#ebebeb"/><path d="M75.54,1000.33a34.82,34.82,0,0,1,2.13-5.78,35.13,35.13,0,0,1,2.58-5.61,34.5,34.5,0,0,1-2.13,5.75A36.35,36.35,0,0,1,75.54,1000.33Z" style="fill:#ebebeb"/><path d="M83.86,999a41.72,41.72,0,0,1-5.6-3.7,42.09,42.09,0,0,1-5.19-4.12,42.47,42.47,0,0,1,5.61,3.7A43.76,43.76,0,0,1,83.86,999Z" style="fill:#ebebeb"/><path d="M141.28,853.64a55.28,55.28,0,0,1-1.63-7.32,53,53,0,0,1-1.15-7.42,116.62,116.62,0,0,1,2.78,14.74Z" style="fill:#ebebeb"/><path d="M145.79,843.75a30.28,30.28,0,0,1-5.6,2.27,26.56,26.56,0,0,1-5.81,1.57,44.8,44.8,0,0,1,5.61-2.05A43.67,43.67,0,0,1,145.79,843.75Z" style="fill:#ebebeb"/><path d="M137.44,851.88a36.59,36.59,0,0,1,2.1-5.78,38.61,38.61,0,0,1,2.61-5.61,42.11,42.11,0,0,1-2.13,5.78A38.94,38.94,0,0,1,137.44,851.88Z" style="fill:#ebebeb"/><path d="M145.77,850.5a41.82,41.82,0,0,1-5.61-3.7,43.86,43.86,0,0,1-5.19-4.12,44.56,44.56,0,0,1,5.61,3.7A44.69,44.69,0,0,1,145.77,850.5Z" style="fill:#ebebeb"/><path d="M61.88,876.35A52,52,0,0,1,60.23,869a54.59,54.59,0,0,1-1.12-7.43A54.47,54.47,0,0,1,60.73,869,56.07,56.07,0,0,1,61.88,876.35Z" style="fill:#ebebeb"/><path d="M66.4,866.43a27.69,27.69,0,0,1-5.61,2.3A30.7,30.7,0,0,1,55,870.3a48.05,48.05,0,0,1,5.6-2A51.44,51.44,0,0,1,66.4,866.43Z" style="fill:#ebebeb"/><path d="M58,874.59a43.46,43.46,0,0,1,2.13-5.78,38.45,38.45,0,0,1,2.58-5.61,36,36,0,0,1-2.1,5.78A36.61,36.61,0,0,1,58,874.59Z" style="fill:#ebebeb"/><path d="M66.34,873.21a42.47,42.47,0,0,1-5.61-3.7,43.76,43.76,0,0,1-5.18-4.12,41.72,41.72,0,0,1,5.6,3.7A43.06,43.06,0,0,1,66.34,873.21Z" style="fill:#ebebeb"/><path d="M110.69,895.81a57.71,57.71,0,0,1-1.62-7.35,51.7,51.7,0,0,1-1.15-7.43,57.81,57.81,0,0,1,1.65,7.35A54.83,54.83,0,0,1,110.69,895.81Z" style="fill:#ebebeb"/><path d="M115.23,885.88a29.6,29.6,0,0,1-5.6,2.27,26,26,0,0,1-5.81,1.57,47,47,0,0,1,5.61-2A45.24,45.24,0,0,1,115.23,885.88Z" style="fill:#ebebeb"/><path d="M106.85,894a35,35,0,0,1,2.13-5.77,38.45,38.45,0,0,1,2.58-5.61,34,34,0,0,1-2.13,5.78A35,35,0,0,1,106.85,894Z" style="fill:#ebebeb"/><path d="M115.18,892.64a41.82,41.82,0,0,1-5.61-3.7,44.69,44.69,0,0,1-5.19-4.12,41.82,41.82,0,0,1,5.61,3.7A43.86,43.86,0,0,1,115.18,892.64Z" style="fill:#ebebeb"/><path d="M63.54,918.66a52.37,52.37,0,0,1-1.66-7.32,56.45,56.45,0,0,1-1.12-7.43,55.28,55.28,0,0,1,1.63,7.32A60.07,60.07,0,0,1,63.54,918.66Z" style="fill:#ebebeb"/><path d="M68.05,908.62a27.69,27.69,0,0,1-5.61,2.3,26.41,26.41,0,0,1-5.8,1.54,52.79,52.79,0,0,1,5.61-2A47,47,0,0,1,68.05,908.62Z" style="fill:#ebebeb"/><path d="M59.67,916.78A42.11,42.11,0,0,1,61.8,911a38.34,38.34,0,0,1,2.58-5.6,36.84,36.84,0,0,1-2.1,5.77A37.12,37.12,0,0,1,59.67,916.78Z" style="fill:#ebebeb"/><path d="M68,915.38a45.18,45.18,0,0,1-5.6-3.7,40.35,40.35,0,0,1-5.08-4.24A91.11,91.11,0,0,1,68,915.26Z" style="fill:#ebebeb"/><path d="M93,928.22a56.07,56.07,0,0,1-1.63-7.35,53.14,53.14,0,0,1-1.15-7.43,57.74,57.74,0,0,1,1.63,7.35A53.14,53.14,0,0,1,93,928.22Z" style="fill:#ebebeb"/><path d="M97.49,918.29a30.77,30.77,0,0,1-5.61,2.3,27.13,27.13,0,0,1-5.8,1.54,44.61,44.61,0,0,1,5.6-2A42,42,0,0,1,97.49,918.29Z" style="fill:#ebebeb"/><path d="M89.11,926.42a35.86,35.86,0,0,1,2.1-5.77A36.18,36.18,0,0,1,93.82,915a38.8,38.8,0,0,1-2.14,5.61A34.63,34.63,0,0,1,89.11,926.42Z" style="fill:#ebebeb"/><path d="M97.43,925.05a42.47,42.47,0,0,1-5.61-3.7,43.76,43.76,0,0,1-5.18-4.12,45.29,45.29,0,0,1,5.61,3.7A42.76,42.76,0,0,1,97.43,925.05Z" style="fill:#ebebeb"/><path d="M74.13,955.94a53.9,53.9,0,0,1-1.62-7.31,53.36,53.36,0,0,1-1.15-7.43A57,57,0,0,1,73,948.52,54.68,54.68,0,0,1,74.13,955.94Z" style="fill:#ebebeb"/><path d="M78.68,946a45.18,45.18,0,0,1-11.36,3.84s2.52-1,5.61-2A45.72,45.72,0,0,1,78.68,946Z" style="fill:#ebebeb"/><path d="M70.29,954.18A78.14,78.14,0,0,1,75,942.82,76.15,76.15,0,0,1,70.29,954.18Z" style="fill:#ebebeb"/><path d="M78.62,952.78a43.49,43.49,0,0,1-5.61-3.7,45.5,45.5,0,0,1-5.18-4.1,39.31,39.31,0,0,1,5.6,3.7A45.61,45.61,0,0,1,78.62,952.78Z" style="fill:#ebebeb"/><path d="M107.5,771.36a25.65,25.65,0,0,0,.45,25.71c3.11,5,8,8.94,10.34,14.35,2.8,6.62,1.6,14.19.73,21.36s-1,15.14,3.59,20.72c1.9,2.33,4.48,4,6.45,6.34a7.83,7.83,0,0,1,1.71,8.41,9.18,9.18,0,0,1-5,3.62,39.27,39.27,0,0,1-42.62-11L82,868.47a56.09,56.09,0,0,1-12.5-69.25" style="fill:#263238"/><path d="M569.34,95l9.86,27.53a140.51,140.51,0,1,0,18.36-18.12Z" style="fill:#fafafa"/><path d="M569.34,95l28.3,9.22h-.25A139.67,139.67,0,0,1,621.12,88.4a141.83,141.83,0,0,1,16.14-7.3c2.91-1.15,6-1.9,9.19-2.91a76.26,76.26,0,0,1,9.86-2.76l10.49-2.06,11-1.08,2.75-.27h8.81c2,0,4,0,6,.14l6.09.63a140.63,140.63,0,0,1,50.73,15.28,142.16,142.16,0,0,1,45.48,37.33l2.51,3,2.2,3.25,4.43,6.55,1.1,1.62,1,1.77,1.9,3.52c1.26,2.34,2.56,4.71,3.82,7.1s2.09,5,3.17,7.49l1.57,3.8a26.15,26.15,0,0,1,1.43,3.85l2.39,7.93,1.22,4c.33,1.35.55,2.76.85,4.11.52,2.75,1.07,5.5,1.6,8.26a27,27,0,0,1,.6,4.21l.39,4.24c.22,2.75.63,5.67.68,8.53s0,5.75,0,8.65v4.34l-.46,4.33-.91,8.72c-.52,2.89-1.16,5.76-1.74,8.65l-.88,4.35c-.3,1.46-.85,2.75-1.24,4.26l-2.75,8.57c-1,2.75-2.23,5.5-3.36,8.26a143.27,143.27,0,0,1-8,16.24c-1.51,2.75-3.33,5.12-5,7.71l-2.56,3.82c-.83,1.3-1.87,2.4-2.75,3.64-2,2.36-3.89,4.76-5.84,7.18s-4.32,4.43-6.47,6.66l-3.28,3.34c-1.13,1-2.36,2-3.55,3l-7.13,5.94c-2.5,1.79-5.06,3.47-7.6,5.21l-3.82,2.58c-1.27.83-2.76,1.49-4,2.23l-8,4.33c-2.76,1.37-5.51,2.39-8.26,3.6a126,126,0,0,1-17,5.81,67.69,67.69,0,0,1-8.67,2c-2.92.55-5.81,1.18-8.7,1.65l-8.75.8-4.35.39h-13c-2.89,0-5.72-.53-8.56-.77l-4.24-.47-2.12-.22-2.09-.44-8.26-1.68A68.6,68.6,0,0,1,647,349.1l-7.93-2.45-7.63-3.16a63.3,63.3,0,0,1-7.4-3.39,122.51,122.51,0,0,1-13.93-8l-6.61-4.38c-2.06-1.59-4.07-3.27-6.08-4.9a140.36,140.36,0,0,1-36.81-46.08,160.48,160.48,0,0,1-9.86-25.49A121.16,121.16,0,0,1,548,238.52c-.33-2.12-.8-4.19-1-6.28l-.66-6.22a140.22,140.22,0,0,1,3.41-45.37,138.72,138.72,0,0,1,13.52-34.88,153.32,153.32,0,0,1,16.07-23.4v.25L569.7,95.09l10.1,27.53v.14A154.29,154.29,0,0,0,564,146.16,140.91,140.91,0,0,0,547.45,226c.22,2,.44,4.08.66,6.17s.72,4.13,1,6.22c.61,4.21,1.85,8.26,2.75,12.61a156.65,156.65,0,0,0,9.83,25.27A139,139,0,0,0,598,321.88c2,1.59,4,3.27,6.05,4.84l6.55,4.33A119.73,119.73,0,0,0,624.4,339a62.63,62.63,0,0,0,7.38,3.33l7.54,3.14,7.87,2.43a61.54,61.54,0,0,0,8,2.14l8.25,1.68,2.07.44,2.12.22,4.18.44c2.76.25,5.65.72,8.48.77H693.2l4.32-.41,8.67-.8c2.75-.46,5.73-1.1,8.59-1.62a70.31,70.31,0,0,0,8.59-2A130.31,130.31,0,0,0,740.22,343c2.75-1.19,5.5-2.21,8.26-3.56l7.95-4.29c1.32-.74,2.76-1.4,4-2.23l3.77-2.53c2.5-1.74,5.06-3.39,7.54-5.18l7-5.86c1.15-1,2.39-1.93,3.52-3L785.5,313c2.15-2.2,4.38-4.32,6.42-6.61l5.75-7.1a41.89,41.89,0,0,0,2.75-3.61l2.51-3.79c1.65-2.54,3.44-5,4.93-7.6a145.71,145.71,0,0,0,8-16.08c1.1-2.75,2.37-5.51,3.33-8.26s1.74-5.5,2.59-8.48c.41-1.4.94-2.75,1.24-4.21l.88-4.29c.58-2.9,1.21-5.73,1.71-8.59s.63-5.76.93-8.62l.44-4.3V208.65c0-2.84-.44-5.51-.66-8.45l-.38-4.22a23.17,23.17,0,0,0-.58-4.15c-.52-2.76-1.07-5.51-1.6-8.26-.27-1.35-.49-2.75-.82-4.08l-1.19-4c-.8-2.62-1.59-5.23-2.36-7.85a25.84,25.84,0,0,0-1.44-3.82l-1.54-3.75c-1-2.5-2.09-5-3.11-7.46l-3.8-7-1.87-3.49-.94-1.74-1.1-1.62-4.4-6.5L799,129.06l-2.45-3a140.71,140.71,0,0,0-95-52.31l-6-.66c-2-.17-4,0-6,0h-8.62l-2.75.27-11,1-10.47,2A84.66,84.66,0,0,0,646.89,79c-3.14,1-6.28,1.76-9.17,2.75a140.44,140.44,0,0,0-39.8,22.77h-.14Z" style="fill:#263238"/><path d="M702.64,139.38l-56.52,5.32-23,6.49a62.37,62.37,0,0,0-26.18,15l-74,71L509.6,126.86l-37,3.22,6.16,142a42.32,42.32,0,0,0,40.31,29.46,43.64,43.64,0,0,0,29.76-12.28l52.69-49.55-5.23,65.35-4.87,11c34.66,33.8,87.93,45.09,129.61,33.5,0,0,1.7-6,9.85-58,6.61-42.09,9.94-133.76,9.94-133.76Z" style="fill:#32bab0"/><path d="M796,301.78s-16.82-92.36-23-112.24c-6.91-22.41-35.51-33-35.51-33l-9,82.92,25.52,98S783.66,319.79,796,301.78Z" style="fill:#32bab0"/><path d="M596.62,306.1c-.33,0,.94-23.53,2.76-52.5s3.82-52.41,4.15-52.41-.93,23.54-2.75,52.52S597,306.13,596.62,306.1Z" style="fill:#263238"/><path d="M689.4,246.69a7.31,7.31,0,0,1-.39,1.11l-1.29,3.08a48.2,48.2,0,0,1-2.26,4.76c-1,1.82-2,3.94-3.41,6.11l-2.15,3.5c-.74,1.18-1.65,2.37-2.53,3.61-1.71,2.56-3.8,5-6,7.7a125.45,125.45,0,0,1-16.07,15.53,127.81,127.81,0,0,1-18.75,12.14c-3.11,1.52-6,3-8.87,4.08-1.43.57-2.75,1.18-4.1,1.65l-3.88,1.29c-2.45.88-4.74,1.41-6.72,1.93a45.89,45.89,0,0,1-5.17,1.15l-3.31.56a3.7,3.7,0,0,1-1.15,0,5.51,5.51,0,0,1,1.13-.36l3.22-.77a49.52,49.52,0,0,0,5.09-1.35c2-.58,4.24-1.16,6.63-2.09l3.83-1.35c1.32-.5,2.75-1.1,4.05-1.68,2.75-1.13,5.67-2.76,8.72-4.16a120.13,120.13,0,0,0,34.5-27.39c2.17-2.75,4.29-5.09,6-7.57.88-1.24,1.79-2.4,2.56-3.55l2.17-3.42c1.46-2.12,2.51-4.21,3.55-6s1.82-3.33,2.45-4.65l1.49-3C689.15,247,689.34,246.67,689.4,246.69Z" style="fill:#263238"/><g style="opacity:0.20000000298023224"><path d="M610.25,313.73a8.68,8.68,0,0,1-5.2-10.41,14.78,14.78,0,0,1,8.42-9.16,61.39,61.39,0,0,1,12.31-3.67,103.08,103.08,0,0,0,48.09-27c1.24-1.21,3-2.56,4.49-1.73,2,1.1.66,4.16-.75,6A127.13,127.13,0,0,1,609,313.84" style="opacity:0.20000000298023224;isolation:isolate"/></g><path d="M740.85,287a11.77,11.77,0,0,1-.88-2.43c-.47-1.57-1.13-3.82-1.87-6.66-1.54-5.67-3.5-13.52-5.51-22.24S729.07,239,728,233.26c-.52-2.75-.93-5.2-1.16-6.83a10,10,0,0,1-.24-2.56,11.08,11.08,0,0,1,.71,2.45c.42,1.87.94,4.13,1.52,6.77,1.35,6,3,13.77,4.95,22.33l5.1,22.3c.6,2.75,1.1,4.93,1.51,6.77A11.55,11.55,0,0,1,740.85,287Z" style="fill:#263238"/><path d="M479.15,140.62a13.65,13.65,0,0,1-1.07-5.5,12.77,12.77,0,0,1,.14-5.67,14.18,14.18,0,0,1,1.07,5.5A13.72,13.72,0,0,1,479.15,140.62Z" style="fill:#263238"/><path d="M490,141a15.33,15.33,0,0,1-.91-5.92,15.42,15.42,0,0,1,.31-6A29.81,29.81,0,0,1,490,141Z" style="fill:#263238"/><path d="M500.74,140.35a18.38,18.38,0,0,1-1-6.61,18.19,18.19,0,0,1,.25-6.66A37.49,37.49,0,0,1,500.74,140.35Z" style="fill:#263238"/><path d="M521.52,256.41a40.2,40.2,0,0,1,.39-9.8,37.85,37.85,0,0,1,1.62-9.63A80.39,80.39,0,0,1,521.52,256.41Z" style="fill:#263238"/><path d="M760.45,170.3c0,.25-3,0-7.57,1a35.24,35.24,0,0,0-26.35,23c-1.59,4.43-1.81,7.4-2,7.37a6.11,6.11,0,0,1,0-2.09,29.45,29.45,0,0,1,1.18-5.5,34,34,0,0,1,27-23.57,28.32,28.32,0,0,1,5.67-.39A7,7,0,0,1,760.45,170.3Z" style="fill:#263238"/><path d="M777.93,218.37a44.59,44.59,0,0,1-7,3c-4.44,1.68-10.6,3.82-17.49,6s-13.18,3.88-17.78,5a44.45,44.45,0,0,1-7.49,1.54,52.83,52.83,0,0,1,7.27-2.39l17.65-5.35,17.53-5.64A50.79,50.79,0,0,1,777.93,218.37Z" style="fill:#fafafa"/><path d="M796,299.85a44.13,44.13,0,0,1-7.35,2c-4.54,1.08-11,2.48-17.83,3.94s-13.36,2.75-17.95,3.61a48,48,0,0,1-7.52,1.15,48.53,48.53,0,0,1,7.32-2c4.57-1.1,11-2.5,17.9-4s13.32-2.76,17.92-3.61A50.11,50.11,0,0,1,796,299.85Z" style="fill:#fafafa"/><path d="M628.75,306a23.84,23.84,0,0,1-4.85-2.07l-11.45-5.51-11.51-5.5a27.09,27.09,0,0,1-4.68-2.45,20.88,20.88,0,0,1,5,1.65c3.06,1.21,7.19,3,11.7,5.12s8.48,4.21,11.32,5.81A21.3,21.3,0,0,1,628.75,306Z" style="fill:#fafafa"/><path d="M723,322a13.68,13.68,0,0,1-2.75-1l-7.38-3.22c-6.22-2.75-14.81-6.41-24.42-10.24S670,300.35,663.66,298l-7.55-2.76a13.79,13.79,0,0,1-2.75-1.15,13,13,0,0,1,2.75.69c1.82.52,4.44,1.34,7.68,2.39,6.45,2.12,15.31,5.26,24.78,9.11s18.2,7.68,24.34,10.6c3.05,1.46,5.5,2.76,7.21,3.55A13.88,13.88,0,0,1,723,322Z" style="fill:#fafafa"/><path d="M730.33,255.42a4.86,4.86,0,0,1-1.32,0l-3.74-.55-13.77-2.23c-11.59-1.9-27.53-4.46-45.31-7s-33.81-4.79-45.45-6.3L607,237.47l-3.74-.55a4.71,4.71,0,0,1-1.29-.27,5.83,5.83,0,0,1,1.32,0L607,237c3.27.27,8,.77,13.76,1.43,11.7,1.29,27.81,3.33,45.54,5.94s33.75,5.32,45.28,7.41c5.78,1.07,10.46,2,13.77,2.62l3.69.79Z" style="fill:#fafafa"/><path d="M725,185.17c0,.33-25.38-3.17-56.57-7.85s-56.47-8.7-56.41-9,25.38,3.17,56.57,7.85S725.08,184.84,725,185.17Z" style="fill:#fafafa"/><path d="M592.33,246.61a56.2,56.2,0,0,1-3.61-7.6l-8.26-18.52c-3.22-7.05-6.11-13.44-8.26-18.45a59.06,59.06,0,0,1-3.3-7.73,8.33,8.33,0,0,1,1.21,1.89c.69,1.27,1.68,3.14,2.75,5.51,2.37,4.63,5.51,11,8.73,18.34s6,13.76,7.93,18.69c.94,2.42,1.68,4.38,2.17,5.75A8.79,8.79,0,0,1,592.33,246.61Z" style="fill:#fafafa"/><path d="M541.89,296c-.33,0-3.58-14.07-7.21-31.57s-6.36-31.77-6-31.83,3.58,14.07,7.21,31.58S542.22,295.92,541.89,296Z" style="fill:#fafafa"/><path d="M520.94,219.16a215.84,215.84,0,0,1-22,5.32,208.6,208.6,0,0,1-22,4.24,210.68,210.68,0,0,1,22-5.32A208.6,208.6,0,0,1,520.94,219.16Z" style="fill:#fafafa"/><path d="M513.7,155.13a26.53,26.53,0,0,1-5.78,1.27c-3.58.6-8.56,1.32-14.09,1.95s-10.55,1.05-14.18,1.27a29,29,0,0,1-5.89,0,28.47,28.47,0,0,1,5.81-.91l14.12-1.63,14.12-1.59A30.58,30.58,0,0,1,513.7,155.13Z" style="fill:#fafafa"/><path d="M532.73,43.91c.68,1.32,18.25,91.7,18.25,91.7l-41.46,1.93L493.41,59.82Z" style="fill:#455a64"/><path d="M551,135.61l4.76-2-18-89.08-5.62-.36Z" style="fill:#263238"/><path d="M516.07,63.68a2.06,2.06,0,0,1-.22,1.22,2.16,2.16,0,0,1-.86.91,2.22,2.22,0,0,1-1.21.27,2.16,2.16,0,0,1-1.88-1.47,2.21,2.21,0,0,1,0-1.25,2.07,2.07,0,0,1,.67-1,2.08,2.08,0,0,1,2-.44,2.11,2.11,0,0,1,.75.37,2.25,2.25,0,0,1,.55.64A2.09,2.09,0,0,1,516.07,63.68Z" style="fill:#263238"/><path d="M507.51,127.11l-.61-11.84,17.7-7.3-6.91-16.38a14.27,14.27,0,0,0-3.4-4.77,14.28,14.28,0,0,0-16.47-2c-2.37,1.27-4.88,2.62-7.11,3.86a20.14,20.14,0,0,0-10.07,13.1,257.73,257.73,0,0,0-4.13,28.88" style="fill:#eb996e"/><path d="M712.71,22.05c6.78,4.1,8.26,13.13,8.9,21s1.59,16.82,7.93,21.55c5.23,3.91,13.76,4.6,15.71,10.77a7.35,7.35,0,0,1,.13,4.52,7.45,7.45,0,0,1-2.53,3.75,7.41,7.41,0,0,1-8.61.4,12.81,12.81,0,0,1-1.4,15c-3.83,3.77-11.43,3.14-13.77-1.76a6.49,6.49,0,0,1,0,5.16,6.42,6.42,0,0,1-1.52,2.16,6.72,6.72,0,0,1-2.24,1.38,6.61,6.61,0,0,1-5.16-.31,6.53,6.53,0,0,1-3.32-4" style="fill:#263238"/><path d="M629.82,89.58a7.92,7.92,0,0,1-1.21,2.87,8.12,8.12,0,0,1-2.24,2.17,8,8,0,0,1-2.9,1.12,7.76,7.76,0,0,1-3.11-.09,7.86,7.86,0,0,1-4.94-3.58,7.86,7.86,0,0,1-.88-6c.86-3.19,3.69-5.86,3.44-9.14-.27-4-4.73-6.11-8.58-7.21s-8.26-2.62-9.39-6.47S601.88,56,604.3,53s4.52-7.38,2.21-10.46c-1.19-1.57-3.2-2.26-4.66-3.58a8.65,8.65,0,0,1,.2-11.79A15.75,15.75,0,0,1,614,22.82a117.71,117.71,0,0,1,13,1.65,52.14,52.14,0,0,0,21.32-1.93A52.4,52.4,0,0,0,667,12.2" style="fill:#263238"/><path d="M677.86,172.28a29,29,0,0,0,30.81-27.8l3.52-91.73a41.56,41.56,0,0,0-40-44.27H670a41.86,41.86,0,0,0-40.91,39.37c-1.18,20.26-2.23,42.67-1.87,53.51.77,22.47,23.32,25.5,23.32,25.5l.16,16.68a29,29,0,0,0,27.17,28.74Z" style="fill:#eb996e"/><path d="M650.47,126.61a52.29,52.29,0,0,0,29.13-9S673,134,650.55,132.42Z" style="fill:#aa6550"/><path d="M637.26,62.13a3.22,3.22,0,0,0,.93,2.25,3.26,3.26,0,0,0,2.23,1,3.12,3.12,0,0,0,1.21-.18,3.09,3.09,0,0,0,1-.63,3,3,0,0,0,.72-1,3,3,0,0,0,.28-1.18,3.31,3.31,0,0,0-4.36-3,3.13,3.13,0,0,0-1,.62,3,3,0,0,0-.72,1A2.84,2.84,0,0,0,637.26,62.13Z" style="fill:#263238"/><path d="M634.14,58.83c.42.41,2.76-1.43,6.28-1.51s6,1.62,6.36,1.18-.22-.93-1.35-1.71a8.75,8.75,0,0,0-5.12-1.45,8.37,8.37,0,0,0-4.95,1.7C634.31,58,634,58.67,634.14,58.83Z" style="fill:#263238"/><path d="M671.61,62.13a3.21,3.21,0,0,0,3.17,3.2,3,3,0,0,0,1.2-.17,3.13,3.13,0,0,0,1-.63,3,3,0,0,0,.71-1,3.21,3.21,0,0,0,.26-1.18,3.18,3.18,0,0,0-3.14-3.17,3,3,0,0,0-1.2.16,3.28,3.28,0,0,0-1,.62,3.31,3.31,0,0,0-.72,1A3.24,3.24,0,0,0,671.61,62.13Z" style="fill:#263238"/><path d="M668.12,58.75c.41.41,2.75-1.43,6.25-1.52s6,1.6,6.38,1.19-.24-.94-1.37-1.74a8.71,8.71,0,0,0-5.12-1.43,8.45,8.45,0,0,0-5,1.71C668.25,57.79,667.92,58.56,668.12,58.75Z" style="fill:#263238"/><path d="M656.14,84.63a22.48,22.48,0,0,0-5.64-.88c-.88,0-1.71-.25-1.87-.86a4.39,4.39,0,0,1,.52-2.61c.8-2.15,1.6-4.41,2.48-6.78a110.94,110.94,0,0,0,5.5-17.67A115.66,115.66,0,0,0,650.25,73c-.8,2.36-1.6,4.62-2.34,6.8a5.25,5.25,0,0,0-.39,3.47,2.25,2.25,0,0,0,.6.8,2.17,2.17,0,0,0,.89.46,7.48,7.48,0,0,0,1.49.17A23.65,23.65,0,0,0,656.14,84.63Z" style="fill:#263238"/><path d="M666.35,86.8c-.57,0-.49,3.72-3.63,6.44s-7.16,2.4-7.18,3,.9.69,2.58.71a9.35,9.35,0,0,0,6-2.25,8,8,0,0,0,2.76-5.51C667,87.68,666.6,86.77,666.35,86.8Z" style="fill:#263238"/><path d="M666.85,45.23c.36.94,3.8.41,7.85.83s7.37,1.43,7.87.58c.25-.42-.36-1.3-1.68-2.18a13.25,13.25,0,0,0-5.89-1.9,13,13,0,0,0-6.11.85C667.51,44.05,666.85,44.79,666.85,45.23Z" style="fill:#263238"/><path d="M635.22,48.81c.6.77,3,0,5.83-.19s5.29.41,5.84-.42-.16-1.18-1.24-1.89a8.07,8.07,0,0,0-4.79-1.19,8.25,8.25,0,0,0-4.62,1.68C635.25,47.63,634.94,48.45,635.22,48.81Z" style="fill:#263238"/><path d="M687.19,28.63h.14a17.81,17.81,0,0,1,6.83,11.29v.47c1,6.38,1,12.91,2.09,19.27a29,29,0,0,0,8.26,17.12c2,1.79,5.51,3,7,.8a5.54,5.54,0,0,0,.72-3c.88-15.5,4.79-29.32,4.43-45.5a13.8,13.8,0,0,0-5.92-11c-3.44-2.34-7.63-4.79-11.34-2.91s-8.45,9-11.32,12.05" style="fill:#263238"/><path d="M704.79,63.07c.38-.16,15.33-4.9,15.17,10.46S704.4,85.59,704.37,85.15,704.79,63.07,704.79,63.07Z" style="fill:#eb996e"/><path d="M709.14,79.37a4.33,4.33,0,0,0,.71.38,2.69,2.69,0,0,0,2,0,6.6,6.6,0,0,0,2.36-2.53,6.52,6.52,0,0,0,.75-3.38,8.81,8.81,0,0,0-.71-3.86,3.15,3.15,0,0,0-.73-1.28,3,3,0,0,0-1.26-.78,1.33,1.33,0,0,0-.92.07,1.39,1.39,0,0,0-.67.64c-.2.44,0,.75-.2.77s-.33-.27-.19-.91a1.7,1.7,0,0,1,.61-1,2.1,2.1,0,0,1,1.48-.36,3.71,3.71,0,0,1,2.76,2.4,9.09,9.09,0,0,1,.88,4.29,7,7,0,0,1-4,6.61A2.79,2.79,0,0,1,709.6,80C709.16,79.73,709.08,79.4,709.14,79.37Z" style="fill:#aa6550"/><path d="M700,17.7c3.67-6.22-6.88-14.81-14.53-17S668,2.34,660.46,5c-4.7,1.68-9.41,4-14.42,3.88a33.68,33.68,0,0,1-9.8-2.26,24.45,24.45,0,0,0-9.86-1.73,9.26,9.26,0,0,0-8,5.29,5.75,5.75,0,0,0-.39,2.43,5.68,5.68,0,0,0,.65,2.37,5.84,5.84,0,0,0,1.57,1.89A5.75,5.75,0,0,0,622.44,18a7.46,7.46,0,0,0-3.49-.84,7.56,7.56,0,0,0-3.49.88,7.53,7.53,0,0,0-3.53,9.32A7.53,7.53,0,0,0,620.74,32c-2.2-1.62-5.51,1.18-5.18,3.91a7.91,7.91,0,0,0,5.51,5.7,28.73,28.73,0,0,0,20.51-.77c6.58-2.37,12.66-6,19.27-8.51s17.45-7.07,24.09-4.9c4.9,1.6,8.26,7.38,11,6a9.39,9.39,0,0,0,4.71-7,26.68,26.68,0,0,0-.5-8.73" style="fill:#263238"/><path d="M630.43,15.5a4.1,4.1,0,0,0-3.83.58,8,8,0,0,0-3,9.74c1.93,4.44,7.79,7.16,13.77,6.61a37.5,37.5,0,0,0,17.72-7.32,96,96,0,0,1,16.08-9.86,24.79,24.79,0,0,1,7.85-1.9,19.3,19.3,0,0,1,6.91,1,14.45,14.45,0,0,1,7.9,6.09,31.54,31.54,0,0,1,1.49,3.49,3.29,3.29,0,0,0,0-1,8.65,8.65,0,0,0-.91-2.75,14.56,14.56,0,0,0-8.07-6.8,18.92,18.92,0,0,0-7.29-1.21A25.51,25.51,0,0,0,670.79,14a89.38,89.38,0,0,0-16.38,9.88,37.13,37.13,0,0,1-17,7.19c-5.51.58-11-1.87-12.75-5.73a6.78,6.78,0,0,1-.67-2.73,7.08,7.08,0,0,1,.5-2.77A7.51,7.51,0,0,1,627,16.46,6.49,6.49,0,0,1,630.43,15.5Z" style="fill:#455a64"/><path d="M672.36,6.83c0,.22,2-.47,5.31-.64A21.81,21.81,0,0,1,698.43,18c1.51,2.75,2,4.9,2.17,4.85a10.68,10.68,0,0,0-1.26-5.32,20.84,20.84,0,0,0-21.78-12.3A10.47,10.47,0,0,0,672.36,6.83Z" style="fill:#455a64"/><path d="M713.93,45.7a7.23,7.23,0,0,0,1.23-4.18,15.68,15.68,0,0,0-11.28-16.36,7.27,7.27,0,0,0-4.35-.33c0,.22,1.62.36,4,1.3a16.38,16.38,0,0,1,10.6,15.36C714.17,44.05,713.65,45.64,713.93,45.7Z" style="fill:#455a64"/><path d="M206.42,393.63c13.67-30,42.27-32.13,77.85-13.78,0,0-4.79,39.09,15,42.09s28.35,2,32.82,16-22.85,27.56-25.1,50.39,4.36,67.79-8.07,95.11S262,630,191,597.66s-69.26-69.29-59.6-90.48,57.25-59.06,65.26-76.68S198.5,411,206.42,393.63Z" style="fill:#32bab0;stroke:#263238;stroke-linecap:round;stroke-linejoin:round;stroke-width:0.5px"/><path d="M274.36,466.64a25.66,25.66,0,1,0-36.26-1.4A25.66,25.66,0,0,0,274.36,466.64Z" style="fill:#263238"/><path d="M274.53,438.34l-22-10,98.73-207.75,15.19,6.94Z" style="fill:#757575;stroke:#263238;stroke-linecap:round;stroke-linejoin:round;stroke-width:1.1097500324249268px"/><path d="M390.58,180.47a18.39,18.39,0,0,0-19.75-9l-4.42-2L348,219.09,369.68,229,395,182.44Z" style="fill:#32bab0;stroke:#263238;stroke-linecap:round;stroke-linejoin:round;stroke-width:1.1097500324249268px"/><path d="M282.11,431l4.75-10.45a25.65,25.65,0,0,0,15.26,7c10.29,1.26,20.93,4.08,23.82,10.84s-11.62,19.52-17.35,29.73-9,24.45-8,40.52c0,0-13.57,4.8-9.51-17.24,4.79-26-7.32-31.57-7.32-31.57S291.48,447.36,282.11,431Z" style="fill:#757575;stroke:#263238;stroke-linecap:round;stroke-linejoin:round;stroke-width:1.1097500324249268px"/><path d="M265.68,517.27,198.77,486.8l-6.65,14.61L211,510c2,2.87,7,6.42,13.37,9.31s12.36,4.33,15.76,4l18.9,8.61Z" style="fill:#757575;stroke:#263238;stroke-linecap:round;stroke-linejoin:round;stroke-width:1.1097500324249268px"/><path d="M392.36,196.76l-3.16-1.68-3.72,7,3.15,1.69Z" style="fill:#757575;stroke:#263238;stroke-linecap:round;stroke-linejoin:round;stroke-width:1.1097500324249268px"/><path d="M386.17,208.31,383,206.62l-3.72,7,3.15,1.68Z" style="fill:#757575;stroke:#263238;stroke-linecap:round;stroke-linejoin:round;stroke-width:1.1097500324249268px"/><path d="M380,219.86l-3.15-1.68-3.72,7,3.15,1.69Z" style="fill:#757575;stroke:#263238;stroke-linecap:round;stroke-linejoin:round;stroke-width:1.1097500324249268px"/><path d="M355,188.37l3.33,1.28,2.82-7.39L357.76,181Z" style="fill:#757575;stroke:#263238;stroke-linecap:round;stroke-linejoin:round;stroke-width:1.1097500324249268px"/><path d="M350.29,200.6l3.34,1.27,2.81-7.38-3.34-1.27Z" style="fill:#757575;stroke:#263238;stroke-linecap:round;stroke-linejoin:round;stroke-width:1.1097500324249268px"/><path d="M343.08,213.87l3.35,1.27,2.79-7.41-3.35-1.26Z" style="fill:#757575;stroke:#263238;stroke-linecap:round;stroke-linejoin:round;stroke-width:1.1117500066757202px"/><g style="opacity:0.5"><path d="M376.69,184.84a2.39,2.39,0,0,0-1-.11,2.48,2.48,0,0,0-1.69.88,2.31,2.31,0,0,0-.46.86L361.3,216.19a1.14,1.14,0,0,0,.44,1.49,1.17,1.17,0,0,0,1.4-.67l14.37-28.76a2.71,2.71,0,0,0,.34-.91,2.64,2.64,0,0,0,0-1,2.4,2.4,0,0,0-.41-.87A2.35,2.35,0,0,0,376.69,184.84Z" style="opacity:0.5;isolation:isolate"/><path d="M384.07,188.3a2.28,2.28,0,0,0-.93-.23,2.24,2.24,0,0,0-.95.16,2.35,2.35,0,0,0-.8.52,2.25,2.25,0,0,0-.52.81l-15,28.43a1.27,1.27,0,0,0-.16.85,1.25,1.25,0,0,0,.43.75,1.12,1.12,0,0,0,.41.1,1,1,0,0,0,.41-.06.82.82,0,0,0,.36-.21,1,1,0,0,0,.26-.34l16.83-27.25a2.63,2.63,0,0,0-.33-3.53Z" style="opacity:0.5;isolation:isolate"/><path d="M369.32,181.59a2.61,2.61,0,0,0-2.88,2L357,214.22a1.06,1.06,0,0,0,0,.82,1.1,1.1,0,0,0,.57.59,1.2,1.2,0,0,0,1.36-.84l11.73-29.92a2.28,2.28,0,0,0,.25-1,2.31,2.31,0,0,0-.16-1,2.26,2.26,0,0,0-.54-.82A2.22,2.22,0,0,0,369.32,181.59Z" style="opacity:0.5;isolation:isolate"/></g><path d="M351.72,209l.75,12.13L218.79,506.34" style="fill:none;stroke:#fff;stroke-linecap:round;stroke-linejoin:round;stroke-width:0.8323130011558533px"/><path d="M222.58,508.08,355,222.29l.57-23.64" style="fill:none;stroke:#fff;stroke-linecap:round;stroke-linejoin:round;stroke-width:0.8323130011558533px"/><path d="M226.39,509.81,357.54,223.44l2.3-36.21" style="fill:none;stroke:#fff;stroke-linecap:round;stroke-linejoin:round;stroke-width:0.8323130011558533px"/><path d="M374.87,219.52l-9.66,7.4L237.81,515" style="fill:none;stroke:#fff;stroke-linecap:round;stroke-linejoin:round;stroke-width:0.8323130011558533px"/><path d="M234,513.27l128.66-287.5,17.44-15.94" style="fill:none;stroke:#fff;stroke-linecap:round;stroke-linejoin:round;stroke-width:0.8323130011558533px"/><path d="M230.2,511.55,360.11,224.62,386,199.09" style="fill:none;stroke:#fff;stroke-linecap:round;stroke-linejoin:round;stroke-width:0.8323130011558533px"/><path d="M378.81,554.52a8.53,8.53,0,0,0-4.53,15.76l22.92,22.91A8.59,8.59,0,0,0,400,595a8.36,8.36,0,0,0,3.27.64,8.59,8.59,0,0,0,6-2.49,8.71,8.71,0,0,0,1.84-2.77,8.51,8.51,0,0,0-1.85-9.29l-9.55-9.55h64.36a8.53,8.53,0,0,0,0-17.05H378.81Z" style="fill:#cbf9f5"/><path d="M498.27,537.75A8.53,8.53,0,0,0,502.8,522l-22.91-22.91a8.53,8.53,0,1,0-12.06,12.06l9.56,9.55H413a8.53,8.53,0,0,0,0,17h85.24Z" style="fill:#cbf9f5"/><path d="M583.94,571.91,565.45,716.63l-95.38,25.09,1.56,5.92L755.74,672.9l22.16-152Z" style="fill:#263238"/><path d="M685.12,627.87c-.18,7.08-4.66,12.71-10,12.58s-9.54-6-9.36-13.09,4.68-12.72,10-12.59S685.32,620.78,685.12,627.87Z" style="fill:#fafafa"/></g></g></svg>