<svg xmlns="http://www.w3.org/2000/svg" viewBox="0 0 1024 551.53"><g id="be953135-fdcd-440b-b42b-ae8dbaa695e1" data-name="Capa 2"><g id="b4fdf291-5928-4f2d-8dd8-243aaa1fc640" data-name="Capa 1"><path d="M406.57,345.56a12.63,12.63,0,0,0-6.71,23.34l33.95,34a12.48,12.48,0,0,0,4.1,2.73,12.32,12.32,0,0,0,4.83,1,12.59,12.59,0,0,0,4.84-1,12.41,12.41,0,0,0,4.09-2.74,12.61,12.61,0,0,0,0-17.86l-14.16-14.15h95.35a12.63,12.63,0,1,0,0-25.25H406.57Z" style="fill:#5b716f"/><path d="M583.55,320.71a12.63,12.63,0,0,0,6.7-23.34l-33.94-33.94a12.63,12.63,0,0,0-17.86,17.87l14.16,14.14H457.26a12.63,12.63,0,0,0,0,25.26H583.55Z" style="fill:#5b716f"/><path d="M919.8,246.62c-.58.23-1.15.45-1.69.72s-.88.47-1.3.7-1,.6-1.54.93-.82.57-1.23.88-.94.74-1.4,1.14-.74.67-1.1,1-.87.88-1.28,1.35-.67.79-1,1.19-.78,1-1.15,1.54-.57.84-.83,1.27l-.19.31c-.29.5-.57,1-.83,1.55-.09.15-.17.31-.25.46-.22.42-.43.85-.62,1.28s-.34.78-.49,1.16-.22.48-.31.75l-.28.69c-.19.5-.36,1-.51,1.55s-.29.89-.42,1.34c-.23.82-.46,1.66-.65,2.52-.14.58-.26,1.17-.37,1.77a5.87,5.87,0,0,1-.18,1c-.07.34-.13.7-.17,1.07-.14.86-.24,1.77-.33,2.69,0,.43-.11.85-.14,1.28v.49c-.11,1.55-.17,3-.17,4.57a84.68,84.68,0,0,0,2.24,18.69c5.76,25.27,22.19,51.4,42.29,66.35a74.23,74.23,0,0,0,7.36,4.92l1.05.57c.59.33,1.17.67,1.76,1l1.35.66,1.45.7,1.47.63,1.28.53c.51.2,1,.39,1.55.56l1.22.41,1.47.47,1.3.34,1.33.34,1.76.34.82.15.69.08,10.55-6.06a51.6,51.6,0,0,1-18.48-6.76c-28.75-16.57-51.94-56.92-51.94-90,0-13.43,3.83-23.61,10.29-29.88l-1,.29C920.69,246.25,920.24,246.43,919.8,246.62Z" style="fill:#263238"/><path d="M929.1,235.42a28.88,28.88,0,0,0-4.64,2.11L914,243.59a31.5,31.5,0,0,1,15.13-4.1Z" style="fill:#37474f"/><path d="M971.09,378.43l-.82-.15-1.76-.34-1.33-.34-.86-.22-.44-.12-1.42-.47-1.22-.41-1.55-.56-1.28-.53-1.47-.63-1.45-.69-1.35-.67c-.58-.29-1.19-.63-1.79-1-.32-.19-.66-.34-1-.54a78.57,78.57,0,0,1-7.12-4.74,101.6,101.6,0,0,1-17.67-16.82,125.54,125.54,0,0,1-12-17.25A118.61,118.61,0,0,1,903.69,301l-.1-.53a84.27,84.27,0,0,1-2.24-18.66,37.21,37.21,0,0,1,.16-4.25V277a2.94,2.94,0,0,1,0-.42c.09-1.16.21-2.3.38-3.42l.1-.71a5.85,5.85,0,0,1,.2-1.08c.06-.37.2-1,.31-1.55s.21-1.08.34-1.54.31-1.12.48-1.67a2.09,2.09,0,0,1,.17-.64c.06-.2,0-.17.07-.24.14-.45.28-.92.44-1.36s.4-1.06.61-1.55.53-1.35.84-2,.45-.9.68-1.35l.28-.53c.25-.46.51-.91.77-1.36s.51-.78.77-1.17l.36-.51c.18-.29.39-.57.59-.84l.48-.6c.14-.17.26-.35.41-.52l.85-1,.3-.29c.35-.37.71-.74,1.1-1.1.17-.15.37-.29.54-.43.46-.4.92-.79,1.4-1.15s.81-.6,1.22-.88,1-.63,1.55-.93.85-.47,1.3-.69,1.11-.5,1.68-.73.9-.37,1.36-.52.7-.22,1.06-.33l.78-.2c.47-.11.93-.25,1.41-.34s1.36-.22,2-.29.91-.14,1.39-.17.84,0,1.27,0v-5.2a31.61,31.61,0,0,0-15.13,4.1c-.65.39-1.29.79-1.92,1.22l-.33.22a30.94,30.94,0,0,0-5,4.4l-.51.56c-.45.51-.88,1-1.31,1.55l-.37.54a31.91,31.91,0,0,0-2,3c-.21.38-.45.77-.66,1.17s-.54,1-.81,1.55-.49,1.06-.74,1.54-.46,1.09-.68,1.64c-.34.87-.65,1.76-.94,2.68-.13.43-.27.88-.39,1.33-.22.77-.42,1.54-.62,2.36-.09.4-.18.79-.26,1.19-.26,1.18-.47,2.38-.65,3.62a8.71,8.71,0,0,1-.11.91c-.14,1.05-.25,2.1-.32,3.09a5.61,5.61,0,0,1-.08,1.16c-.09,1.38-.14,2.77-.14,4.19a94.25,94.25,0,0,0,4.35,27,122.93,122.93,0,0,0,5,13.62q1.54,3.38,3.09,6.66a134.32,134.32,0,0,0,11.61,18.88c8.7,11.83,19.2,21.86,30.49,28.37a60.07,60.07,0,0,0,14.3,6.18l6.74-3.86Z" style="fill:#455a64"/><path d="M1024,325.94c0-30.24-21.23-67-47.42-82.12-13.14-7.58-25-8.27-33.59-3.28-2.62,1.55-20.1,11.61-22.78,13.11-8.62,4.93-13.91,15.57-13.91,30.74,0,30.24,21.23,67,47.42,82.12,13.11,7.58,25,8.27,33.56,3.3,2.63-1.55,20.25-11.66,22.9-13.19C1018.7,351.67,1024,341.05,1024,325.94Z" style="fill:#32bab0"/><path d="M1024,325.94c0-30.24-21.23-67-47.42-82.12-13.14-7.58-25-8.27-33.59-3.28-2.62,1.55-20.1,11.61-22.78,13.11-8.62,4.93-13.91,15.57-13.91,30.74,0,30.24,21.23,67,47.42,82.12,13.11,7.58,25,8.27,33.56,3.3,2.63-1.55,20.25-11.66,22.9-13.19C1018.7,351.67,1024,341.05,1024,325.94Z" style="opacity:0.30000001192092896;isolation:isolate"/><path d="M953.64,257c26.17,15.12,47.4,51.9,47.4,82.12s-21.12,42.5-47.4,27.38-47.42-51.88-47.42-82.12S927.48,241.89,953.64,257Z" style="fill:#32bab0"/><path d="M973.74,378.74H974c.8,0,1.54.09,2.38.11h.39a27.69,27.69,0,0,0,3.4-.2h.12a26.93,26.93,0,0,0,2.82-.53c.38-.07.78-.17,1.17-.27.73-.21,1.45-.44,2.16-.7a10.85,10.85,0,0,0,1.55-.68c.26-.11.5-.23.74-.36a25.05,25.05,0,0,0,6.19-4.42,30.36,30.36,0,0,1-12.65.76l-10.54,6.06C972.44,378.6,973.09,378.7,973.74,378.74Z" style="fill:#263238"/><path d="M966.46,248a16.48,16.48,0,0,0,4.91,10.71c22.59,20.77,39.1,54.47,39.1,83,0,20.78-8.72,35.56-23,40.52a25.54,25.54,0,0,0,5.21-2.38l10.5-6.06c11.16-6.43,17.8-20.1,17.8-38.18,0-28.53-16.52-62.25-39.11-83A16.7,16.7,0,0,1,977,242V199.9L966.46,206l-5.2-3,5.2,3Z" style="fill:#37474f"/><path d="M971.37,258.75A16.48,16.48,0,0,1,966.46,248V206l-5.2-3v47.57a10.05,10.05,0,0,0,.22,1.89l.09.46a16.71,16.71,0,0,0,.57,2,18.61,18.61,0,0,0,1.38,2.84l.43.64a14,14,0,0,0,1.36,1.81,10.17,10.17,0,0,0,1,1c1.25,1.1,2.47,2.25,3.68,3.41l1,.94c1,1,2.09,2.12,3.09,3.23l.47.48c1.14,1.25,2.25,2.54,3.37,3.86l.83,1c.91,1.11,1.81,2.25,2.68,3.4l.63.83c1,1.38,2,2.8,3,4.22l.68,1c.81,1.19,1.55,2.41,2.34,3.63l.65,1.05c.91,1.55,1.78,3,2.63,4.53l.48.91c.69,1.29,1.37,2.59,2,3.9l.6,1.22c.77,1.56,1.49,3.13,2.18,4.73.08.22.17.42.25.64.6,1.4,1.18,2.83,1.73,4.26.16.44.33.85.48,1.29.61,1.54,1.18,3.26,1.69,4.88s1,3.28,1.42,4.92l.28,1.05c.4,1.55.77,3.18,1.1,4.78l.13.8c.29,1.46.54,2.92.75,4.36a4.42,4.42,0,0,0,.12.8c.2,1.55.37,3.1.48,4.64a4.39,4.39,0,0,0,.08,1c.09,1.55.17,3.19.17,4.75,0,9.28-1.84,17-5.14,23a28.25,28.25,0,0,1-2.39,3.71c-.43.57-.88,1.13-1.35,1.66s-.94,1-1.44,1.54a24.82,24.82,0,0,1-6.18,4.42,7.26,7.26,0,0,1-.74.36c-.51.25-1,.48-1.55.68s-1.33.46-2,.65h-.17c-.39.11-.77.2-1.18.28l-.69.18c-.7.14-1.41.25-2.12.34h-.12a25.9,25.9,0,0,1-3.41.2h-.88a11.91,11.91,0,0,1-1.88-.1h-.31a15,15,0,0,1-2-.22L965,382.34A42.65,42.65,0,0,0,976.54,384a11.27,11.27,0,0,0,1.54-.07c.51-.08,1.41,0,2.06-.11l1.19-.17c.76-.11,1.54-.22,2.21-.36a4.58,4.58,0,0,0,1.07-.24l.43-.13c.66-.17,1.33-.32,2-.54l.46-.14c14.26-4.91,23-19.74,23-40.52C1010.47,313.22,994,279.52,971.37,258.75Z" style="fill:#455a64"/><path d="M942.82,245.75l.21-.09a1.55,1.55,0,0,0,.36-.19l10.54-6.09A4.48,4.48,0,0,0,956,235.3V187.73l-10.53,6.09v47.57a4.33,4.33,0,0,1-2.64,4.36Z" style="fill:#37474f"/><path d="M930.11,239.47a41.5,41.5,0,0,1,7.54.72,2,2,0,0,0,.94,0,2,2,0,0,0,.85-.4,2,2,0,0,0,.58-.74,2.11,2.11,0,0,0,.17-.93v-4.73a34.12,34.12,0,0,0-11.09,2v4.12C929.44,239.52,929.77,239.47,930.11,239.47Z" style="fill:#37474f"/><path d="M931.44,244.7a36.08,36.08,0,0,1,3.74.34c1.2.19,2.44.43,3.68.74h.35a7.11,7.11,0,0,0,1.21.2h.11a4.18,4.18,0,0,0,1,0h.19a6.31,6.31,0,0,0,.93-.23,4.33,4.33,0,0,0,2.64-4.36V193.82l-5.19-3.09v47.34a2.07,2.07,0,0,1-.18.92,2,2,0,0,1-.57.75,2.22,2.22,0,0,1-.85.4,2.13,2.13,0,0,1-.94,0,42.4,42.4,0,0,0-7.54-.71h-1v5.19h1.1C930.48,244.59,931,244.69,931.44,244.7Z" style="fill:#455a64"/><path d="M1019.14,354.7c0-44.68-31.36-98.95-70.06-121.35-19.33-11.16-36.81-12.21-49.47-4.91l-21.17,12.21C865.79,248,858,263.64,858,286c0,44.68,31.37,99,70.06,121.35,19.32,11.15,36.81,12.22,49.47,4.92L998.63,400C1011.3,392.7,1019.14,377,1019.14,354.7Z" style="fill:#32bab0"/><path d="M977.55,412.22c27.36-15.8,27.36-67,0-114.42s-71.73-73-99.09-57.21-27.35,67,0,114.42S950.19,428,977.55,412.22Z" style="opacity:0.10000000149011612;isolation:isolate"/><path d="M998.1,366.87c0-44.68-31.37-98.95-70.06-121.35-19.36-11.18-36.88-12.21-49.55-4.87l-10.49,6c-12.7,7.32-20.56,23-20.56,45.37,0,44.68,31.37,98.94,70,121.34,19.36,11.17,36.88,12.22,49.55,4.89l10.55-6.09C990.25,404.89,998.1,389.16,998.1,366.87Z" style="fill:#f0f0f0"/><path d="M917.49,251.56c38.65,22.35,70.07,76.67,70.07,121.35s-31.37,62.79-70.07,40.45-70-76.67-70-121.35S878.81,229.27,917.49,251.56Z" style="fill:#e0e0e0"/><path d="M992.71,373c0-46.26-32.59-102.7-72.67-125.83-11.79-6.82-23.19-10.27-33.89-10.27a40.84,40.84,0,0,0-20.87,5.4c-3.49,2-17.62,10.12-21.21,12.21-14.38,8.43-22.94,26.14-22.94,49.77,0,46.26,32.59,102.7,72.66,125.83,11.8,6.82,23.19,10.27,33.89,10.27a40.84,40.84,0,0,0,21-5.48c3.43-2,17.39-10,20.94-12.06C984.1,414.41,992.71,396.66,992.71,373Z" style="fill:#455a64"/><path d="M927.68,440.34c-10.68,0-22.09-3.45-33.89-10.27-40.06-23.19-72.66-79.57-72.66-125.83,0-33.55,17.25-55.21,44-55.21,10.7,0,22.09,3.45,33.89,10.27,40.06,23.19,72.66,79.57,72.66,125.83C971.63,418.66,954.38,440.34,927.68,440.34Z" style="fill:#37474f"/><path d="M912,392.46a34.29,34.29,0,0,1-17-5.14c-20-11.55-36.28-39.73-36.28-62.84,0-16.75,8.62-27.57,21.95-27.57A34.18,34.18,0,0,1,897.61,302c20,11.56,36.29,39.75,36.29,62.86C934,381.63,925.35,392.46,912,392.46Z" style="fill:#263238"/><path d="M822.66,471.1c0-46.25-32.59-102.7-72.67-125.84C738.2,338.45,726.8,335,716.12,335a40.84,40.84,0,0,0-20.87,5.4c-3.49,2-17.64,10.13-21.21,12.21-14.4,8.43-23,26.15-23,49.76,0,46.25,32.59,102.71,72.66,125.84,11.8,6.82,23.19,10.27,33.88,10.27a40.81,40.81,0,0,0,21-5.54c3.44-2,17.41-10,21-12.05C814.05,512.55,822.66,494.8,822.66,471.1Z" style="fill:#455a64"/><path d="M757.63,538.48c-10.68,0-22.08-3.45-33.87-10.27-40.08-23.19-72.67-79.59-72.67-125.84,0-33.54,17.26-55.2,44-55.2,10.69,0,22.08,3.45,33.88,10.25C769,380.61,801.6,437,801.6,483.27,801.59,516.8,784.33,538.48,757.63,538.48Z" style="fill:#37474f"/><path d="M796.41,483.27c0-44.68-31.37-98.95-70.07-121.35C707,350.74,689.47,349.69,676.87,357l-10.49,6.06c-12.69,7.31-20.56,23-20.56,45.34,0,44.68,31.37,98.95,70.07,121.35,19.36,11.18,36.86,12.21,49.47,4.9l10.55-6.09C788.57,521.27,796.41,505.59,796.41,483.27Z" style="fill:#f0f0f0"/><path d="M715.81,368c38.65,22.34,70.07,76.67,70.07,121.34s-31.37,62.79-70.07,40.51-70.07-76.67-70.07-121.34S677.11,345.66,715.81,368Z" style="fill:#e0e0e0"/><path d="M785.88,489.34c0-44.67-31.37-98.94-70.07-121.34-19.32-11.17-36.81-12.22-49.47-4.92l-21.17,12.17c-12.66,7.33-20.5,23-20.5,45.31,0,44.68,31.37,98.95,70.07,121.35,19.31,11.16,36.79,12.22,49.47,4.92l21.14-12.2C778,527.36,785.88,511.68,785.88,489.34Z" style="fill:#32bab0"/><path d="M694.74,380.16c38.65,22.34,70,76.67,70,121.35s-31.35,62.79-70,40.45-70.07-76.67-70.07-121.35S656,357.82,694.74,380.16Z" style="opacity:0.10000000149011612;isolation:isolate"/><path d="M644.43,405.6c-.57.21-1.14.44-1.7.71a11.11,11.11,0,0,0-1.28.71c-.42.25-1.05.6-1.55.93s-.82.57-1.22.88-.94.73-1.41,1.13l-1.11,1c-.43.44-.85.89-1.27,1.35s-.68.79-1,1.19-.76,1-1.13,1.54-.57.85-.84,1.29l-.18.31c-.3.49-.57,1-.85,1.54l-.23.47c-.22.41-.44.83-.64,1.26s-.32.78-.48,1.16-.21.5-.31.75l-.28.71c-.18.49-.35,1-.52,1.54s-.28.9-.4,1.35c-.25.81-.47,1.65-.65,2.5-.14.59-.27,1.18-.37,1.78l-.19,1a7.93,7.93,0,0,1-.17,1.07c-.14.88-.23,1.77-.32,2.68,0,.44-.11.86-.14,1.3v.5c-.11,1.47-.17,3-.17,4.56a83.36,83.36,0,0,0,2.24,18.69c5.78,25.33,22.23,51.45,42.36,66.4a78.56,78.56,0,0,0,7.36,4.92l1,.57,1.76,1,1.35.67,1.45.67a14.72,14.72,0,0,0,1.55.64c.57.2.85.37,1.28.53l1.55.57,1.2.42,1.55.45,1.3.35,1.33.32c.58.14,1.17.25,1.76.36l.8.16.7.07,10.31-6.15a51.38,51.38,0,0,1-18.55-6.76c-28.71-16.57-52-56.85-52-90,0-13.42,3.84-23.59,10.3-29.87-.34.09-.7.17-1,.28Z" style="fill:#263238"/><path d="M653.71,394.4a29.78,29.78,0,0,0-4.64,2.09l-10.5,6.06a31.61,31.61,0,0,1,15.14-4Z" style="fill:#37474f"/><path d="M695.67,537.41l-.81-.15c-.59-.11-1.16-.22-1.76-.36l-1.33-.32-.88-.22-.42-.14-1.54-.45-1.24-.41-1.55-.58c-.43-.15-.85-.34-1.28-.52l-1.55-.62-1.45-.7-1.34-.66-1.8-1-1-.54a79,79,0,0,1-7.11-4.73,101.31,101.31,0,0,1-17.68-16.82A125.07,125.07,0,0,1,641,492a118.68,118.68,0,0,1-12.9-32,1,1,0,0,0-.1-.52,84.17,84.17,0,0,1-2.09-18.65,39.68,39.68,0,0,1,.15-4.25v-1c.1-1.16.22-2.29.39-3.41l.09-.71a6.62,6.62,0,0,1,.2-1.08c.06-.35.2-1,.3-1.54a13.11,13.11,0,0,1,.35-1.55c.14-.47.31-1.13.47-1.68l.18-.62a1,1,0,0,0,0-.25c.16-.46.3-.91.45-1.36s.4-1.07.6-1.55.54-1.34.85-2,.45-.89.68-1.34l.28-.54c.25-.45.51-.92.77-1.35s.51-.79.78-1.17l.34-.53.85-.91.46-.59c.16-.17.28-.35.43-.52s.56-.65.86-1l.27-.29,1.1-1.1c.17-.16.37-.28.54-.43.47-.4.93-.78,1.41-1.13s.8-.6,1.22-.88,1-.64,1.55-.93.85-.5,1.28-.71a17.87,17.87,0,0,1,1.7-.71l1.36-.54,1.05-.31.68-.16c.47-.12.93-.25,1.41-.34s1.34-.21,2-.29a14,14,0,0,0,1.39-.19c.48,0,.84,0,1.27,0v-5.19a31.57,31.57,0,0,0-15.14,4.1c-.66.37-1.3.78-1.91,1.2l-.33.24a31.08,31.08,0,0,0-5,4.4l-.49.56c-.45.51-.88,1-1.32,1.54-.12.17-.24.36-.38.53a28.24,28.24,0,0,0-2,3.09l-.67,1.16c-.27.51-.54,1-.8,1.55s-.49,1.06-.74,1.62-.47,1.07-.68,1.64c-.34.86-.65,1.75-.94,2.66-.14.43-.27.88-.39,1.33-.22.79-.43,1.54-.62,2.38L622,427.8c-.25,1.17-.46,2.38-.63,3.61a2.61,2.61,0,0,1-.11.92c-.14,1-.25,2.09-.32,3.09l-.1,1.16c-.07,1.37-.14,2.77-.14,4.19a94,94,0,0,0,4.3,27,126,126,0,0,0,5,13.6q1.47,3.36,3.09,6.67a133.65,133.65,0,0,0,11.61,18.87c8.71,11.83,19.21,21.87,30.49,28.39a62.1,62.1,0,0,0,14.3,6.18l6.74-3.88Z" style="fill:#455a64"/><path d="M742.16,488.43c0-30.22-21.23-67-47.42-82.12-13.14-7.58-25-8.27-33.6-3.26l-22.77,13.09c-8.63,4.93-13.91,15.58-13.91,30.74,0,30.24,21.22,67,47.41,82.12,13.11,7.58,25,8.29,33.57,3.29l22.89-13.17C736.85,514.16,742.16,503.57,742.16,488.43Z" style="fill:#32bab0"/><path d="M742.16,488.43c0-30.22-21.23-67-47.42-82.12-13.14-7.58-25-8.27-33.6-3.26l-22.77,13.09c-8.63,4.93-13.91,15.58-13.91,30.74,0,30.24,21.22,67,47.41,82.12,13.11,7.58,25,8.29,33.57,3.29l22.89-13.17C736.85,514.16,742.16,503.57,742.16,488.43Z" style="opacity:0.30000001192092896;isolation:isolate"/><path d="M705.35,532.32c18.51-10.69,18.51-45.36,0-77.43s-48.54-49.4-67.06-38.71-18.51,45.35,0,77.42S686.83,543,705.35,532.32Z" style="fill:#32bab0"/><path d="M696.45,522.76c14.43-8.3,14.49-35.29.12-60.3s-37.72-38.55-52.16-30.25-14.48,35.29-.11,60.29S682,531.05,696.45,522.76Z" style="fill:#263238"/><path d="M690.1,454.61l-21.77,21.73-26-45c6.64-3.87,15.85-3.31,26,2.55A71.84,71.84,0,0,1,690.1,454.61Z" style="fill:#455a64"/><path d="M705.14,497.62c0,11.72-4.12,20-10.82,23.77l-26-45.05,21.77-21.73C699.21,467.61,705.14,483.47,705.14,497.62Z" style="fill:#37474f"/><path d="M694.35,521.39c-6.63,3.82-15.91,3.33-26-2.53a70.77,70.77,0,0,1-21.73-20.78l21.73-21.74Z" style="fill:#455a64"/><path d="M668.33,476.34,646.6,498.08c-9.14-13-15.05-28.9-15.05-42.95,0-11.75,4.13-20,10.82-23.82Z" style="fill:#37474f"/><path d="M698.33,537.72h.21c.81,0,1.55.1,2.38.1h.39a29.14,29.14,0,0,0,3.4-.21h.12a22.53,22.53,0,0,0,2.82-.51c.38-.09.79-.17,1.17-.27.73-.21,1.46-.45,2.15-.72a15,15,0,0,0,1.55-.66l.74-.37a24.53,24.53,0,0,0,6.18-4.41,30.47,30.47,0,0,1-12.64.74l-10.56,6.08C697,537.58,697.68,537.68,698.33,537.72Z" style="fill:#263238"/><path d="M691,407A16.61,16.61,0,0,0,696,417.73c22.57,20.75,39.1,54.47,39.1,83,0,20.79-8.72,35.56-23,40.52a24.94,24.94,0,0,0,5.21-2.36l10.49-6.06c11.17-6.44,17.81-20.1,17.81-38.17,0-28.54-16.52-62.27-39.11-83a16.64,16.64,0,0,1-4.86-10.72V358.88L691.11,365l-5.2-3,5.2,3Z" style="fill:#37474f"/><path d="M696,417.73A16.61,16.61,0,0,1,691,407V365l-5.19-3v47.57a9.1,9.1,0,0,0,.22,1.87l.09.48a15.32,15.32,0,0,0,2,4.78c.14.23.27.43.43.65a14.75,14.75,0,0,0,1.34,1.8,10.48,10.48,0,0,0,1,1c1.25,1.09,2.47,2.23,3.68,3.41l1,.94q1.58,1.57,3.09,3.22l.46.49c1.15,1.25,2.26,2.54,3.36,3.85.29.34.57.69.85,1,.91,1.12,1.81,2.25,2.67,3.41.22.27.44.54.64.81,1,1.4,2,2.8,3.09,4.24l.68,1c.8,1.19,1.55,2.39,2.33,3.62l.65,1.06c.92,1.55,1.78,3,2.63,4.52l.48.92c.7,1.29,1.38,2.58,2,3.9l.6,1.2c.76,1.55,1.54,3.1,2.16,4.75.1.2.19.42.27.62.6,1.42,1.18,2.85,1.71,4.27.17.43.34.86.5,1.3.58,1.62,1.17,3.24,1.68,4.88s1,3.28,1.42,4.92c.1.34.19.7.27,1.05.42,1.59.79,3.18,1.11,4.78l.14.8c.29,1.46.53,2.91.74,4.36a2,2,0,0,0,.11.79c.22,1.55.37,3.09.49,4.64v1c.1,1.54.17,3.17.17,4.73,0,9.27-1.84,17.08-5.13,23.07a30.82,30.82,0,0,1-2.39,3.71q-.66.85-1.35,1.65c-.46.53-.94,1-1.44,1.55a24.74,24.74,0,0,1-6.18,4.4l-.74.37c-.53.23-1.06.47-1.55.67a19.08,19.08,0,0,1-2,.66h-.17c-.39.11-.79.19-1.17.28l-.7.17c-.7.14-1.41.27-2.12.34h-.21a29.86,29.86,0,0,1-3.41.2h-.88a10.9,10.9,0,0,1-1.88-.11h-.23a14.69,14.69,0,0,1-2-.23l-6.74,3.88a42.64,42.64,0,0,0,11.5,1.67h1.55a13.84,13.84,0,0,0,2.06-.11l1.19-.17c.75-.1,1.54-.21,2.19-.35l1.08-.25.44-.12c.66-.17,1.33-.34,2-.55l.46-.15c14.25-4.9,23-19.73,23-40.52C735.06,472.2,718.53,438.48,696,417.73Z" style="fill:#455a64"/><path d="M667.31,404.73l.31-.11.36-.18,10.46-6a4.48,4.48,0,0,0,2.06-4.08V346.71L670,352.8v47.56a4.35,4.35,0,0,1-2.66,4.37Z" style="fill:#37474f"/><path d="M654.7,398.44a40.62,40.62,0,0,1,7.54.71A2,2,0,0,0,664.6,398a2.07,2.07,0,0,0,.18-.92v-4.73a33,33,0,0,0-11.09,2v4.11A5.71,5.71,0,0,1,654.7,398.44Z" style="fill:#37474f"/><path d="M656,403.66a25.56,25.56,0,0,1,3.74.36,35.77,35.77,0,0,1,3.68.74h.35a7.22,7.22,0,0,0,1.22.2h.11a5.68,5.68,0,0,0,1,0h.18a4.22,4.22,0,0,0,.93-.23,4.35,4.35,0,0,0,2.66-4.37V352.8l-5.2-3.09v47.35a1.83,1.83,0,0,1-.18.92,2,2,0,0,1-1.41,1.14,2,2,0,0,1-.94,0,40.65,40.65,0,0,0-7.55-.71h-1v5.19h1.1A6.75,6.75,0,0,0,656,403.66Z" style="fill:#455a64"/><path d="M673.26,323.77c-1.91-1.1-4.54-.95-7.45.74a23.16,23.16,0,0,0-10.56,18.27c0,3.39,1.19,5.77,3.09,6.85l42.12,24.3L715.3,348.1Z" style="fill:#32bab0"/><path d="M673.26,323.77c-1.91-1.1-4.54-.95-7.45.74a23.16,23.16,0,0,0-10.56,18.27c0,3.39,1.19,5.77,3.09,6.85l42.12,24.3L715.3,348.1Z" style="opacity:0.30000001192092896;isolation:isolate"/><path d="M656.54,336.36a18.83,18.83,0,0,0-1.29,6.42c0,3.39,1.19,5.77,3.09,6.85l42.12,24.3,5.24-9.12Z" style="opacity:0.30000001192092896;isolation:isolate"/><path d="M697.41,367.08A23.19,23.19,0,0,1,708,348.84c2.87-1.67,5.49-1.84,7.39-.77s3.09,3.46,3.09,6.85a23.32,23.32,0,0,1-10.53,18.26c-2.92,1.67-5.55,1.84-7.45.72S697.41,370.46,697.41,367.08Z" style="fill:#32bab0"/><path d="M697.41,367.08A23.19,23.19,0,0,1,708,348.84c2.87-1.67,5.49-1.84,7.39-.77s3.09,3.46,3.09,6.85a23.32,23.32,0,0,1-10.53,18.26c-2.92,1.67-5.55,1.84-7.45.72S697.41,370.46,697.41,367.08Z" style="opacity:0.20000000298023224;isolation:isolate"/><path d="M702,364.43a13.32,13.32,0,0,1,1.76-5.9,13.18,13.18,0,0,1,4.23-4.46,3.64,3.64,0,0,1,6,3.46,13.22,13.22,0,0,1-6,10.34,3.73,3.73,0,0,1-2.05.89,3.65,3.65,0,0,1-3.68-2.12A3.73,3.73,0,0,1,702,364.43Z" style="fill:#37474f"/><path d="M711.13,356a5.2,5.2,0,0,0-.64-2.67,5.44,5.44,0,0,0-2.53.79,13.18,13.18,0,0,0-4.23,4.46,13.32,13.32,0,0,0-1.76,5.9,5.4,5.4,0,0,0,.64,2.67,5.49,5.49,0,0,0,2.55-.79,13.22,13.22,0,0,0,6-10.36Z" style="fill:#263238"/><path d="M947.21,165.6c-1.9-1.09-4.55-.94-7.45.75a23.27,23.27,0,0,0-10.55,18.24c0,3.39,1.21,5.75,3.09,6.85l42.1,24.3,14.86-25.83Z" style="fill:#32bab0"/><path d="M947.21,165.6c-1.9-1.09-4.55-.94-7.45.75a23.27,23.27,0,0,0-10.55,18.24c0,3.39,1.21,5.75,3.09,6.85l42.1,24.3,14.86-25.83Z" style="opacity:0.30000001192092896;isolation:isolate"/><path d="M930.45,178.19a19.48,19.48,0,0,0-1.27,6.4c0,3.39,1.21,5.75,3.09,6.85l42.1,24.3,5.26-9.13Z" style="opacity:0.30000001192092896;isolation:isolate"/><path d="M971.37,208.92a23.35,23.35,0,0,1,10.53-18.25c2.89-1.66,5.5-1.83,7.41-.76s3.09,3.46,3.09,6.85A23.15,23.15,0,0,1,981.85,215c-2.9,1.69-5.53,1.84-7.45.74S971.37,212.28,971.37,208.92Z" style="fill:#32bab0"/><path d="M971.37,208.92a23.35,23.35,0,0,1,10.53-18.25c2.89-1.66,5.5-1.83,7.41-.76s3.09,3.46,3.09,6.85A23.15,23.15,0,0,1,981.85,215c-2.9,1.69-5.53,1.84-7.45.74S971.37,212.28,971.37,208.92Z" style="opacity:0.20000000298023224;isolation:isolate"/><path d="M975.93,206.3a13.22,13.22,0,0,1,6-10.36,4.26,4.26,0,0,1,4.21-.44,4.26,4.26,0,0,1,1.42,1.7,4.21,4.21,0,0,1,.35,2.19,13.19,13.19,0,0,1-6,10.35,3.61,3.61,0,0,1-2,.9,3.68,3.68,0,0,1-2.18-.47,3.61,3.61,0,0,1-1.5-1.66A3.65,3.65,0,0,1,975.93,206.3Z" style="fill:#37474f"/><path d="M985.08,197.82a5.29,5.29,0,0,0-.63-2.67,5.49,5.49,0,0,0-2.55.79,13.19,13.19,0,0,0-6,10.36,5.2,5.2,0,0,0,.65,2.67,5.44,5.44,0,0,0,2.53-.79,13.19,13.19,0,0,0,6-10.36Z" style="fill:#263238"/><path d="M979.63,77.79,934.17,51.51a87.59,87.59,0,0,0-10.42-15.57C948.15,40.19,967.45,55,979.63,77.79Z" style="fill:#32bab0"/><path d="M979.63,77.79,934.17,51.51a87.59,87.59,0,0,0-10.42-15.57C948.15,40.19,967.45,55,979.63,77.79Z" style="opacity:0.20000000298023224;isolation:isolate"/><path d="M971.22,190.93a208.14,208.14,0,0,0,3.57-37.28c0-84.55-59.35-118.83-132.57-76.54S709.63,222.19,709.63,306.74a147,147,0,0,0,3.58,33.18l-17.1,9.88A171.49,171.49,0,0,1,693,316.34c0-95.16,66.82-210.89,149.24-258.46s149.23-9,149.23,86.16a229.41,229.41,0,0,1-3.1,37.1l-17,9.85" style="fill:#37474f"/><path d="M971.23,190.93a209.24,209.24,0,0,0,3.56-37.29C974.79,97.87,949,64,910.37,59.5c12.07,16.11,19,39.1,19,68a210,210,0,0,1-3.56,37.18Z" style="fill:#263238"/><path d="M945,45.94c-26.78-13.91-63-11-102.81,12C759.78,105.45,693,221.17,693,316.36a169.56,169.56,0,0,0,3.09,33.42l-45.35-26.19a169.16,169.16,0,0,1-3.2-33.37c0-95.18,66.81-210.9,149.24-258.49C837.93,8,875.19,5.71,902.2,21.28,909.13,25.21,934.62,39.94,945,45.94Z" style="fill:#455a64"/><path d="M672.91,310.64a7.35,7.35,0,0,1-3.57-1.08,17,17,0,0,1-7.64-13.16c0-3.53,1.82-5.8,4.64-5.8a7.29,7.29,0,0,1,3.57,1.07,17,17,0,0,1,7.64,13.23C677.53,308.35,675.71,310.64,672.91,310.64Z" style="fill:#263238"/><path d="M951.77,36.8a88.41,88.41,0,0,0-43-10.48c-22.77,0-47.06,7.36-72.21,21.86-58.21,33.6-109,100.19-135.44,170.39l-45.42-26.28C682.17,122.08,733,55.5,791.17,21.9,816.32,7.4,840.64,0,863.38,0A87.88,87.88,0,0,1,907.8,11.36C915,15.59,942.15,31.24,951.77,36.8Z" style="fill:#32bab0"/><path d="M951.77,36.8a88.41,88.41,0,0,0-43-10.48c-22.77,0-47.06,7.36-72.21,21.86-58.21,33.6-109,100.19-135.44,170.39l-45.42-26.28C682.17,122.08,733,55.5,791.17,21.9,816.32,7.4,840.64,0,863.38,0A87.88,87.88,0,0,1,907.8,11.36C915,15.59,942.15,31.24,951.77,36.8Z" style="fill:#fff;opacity:0.6000000238418579;isolation:isolate"/><path d="M979.61,77.77C965.05,50.58,940.33,34.7,908.8,34.7c-21.29,0-44.18,7-68,20.75C783.73,88.38,734,153.9,708.42,222.78l-7.27-4.21c26.44-70.2,77.23-136.79,135.44-170.39,25.15-14.5,49.47-21.86,72.21-21.86,33.18,0,59.54,15.68,75.76,42.9Z" style="fill:#32bab0"/><path d="M104.54,147.06c-7.75,4.47-46.72,26.47-77.52,44.75C1.43,207.08,0,244.06,0,262.08l143.3-119.5C126,132.58,112.3,142.58,104.54,147.06Z" style="fill:#263238"/><path d="M273.29,432.78a213.88,213.88,0,0,1-2.4,35.3c-.56,3.34-1.22,6.41-1.91,9.24C264.3,494.65,255.87,503,243.77,510c-32.06,17.44-75.74,4.4-135.49-42.86C53.72,424,32,389.27,32,389.27v16.28c10.83,14,33.14,39.57,70.45,69.1,44.18,34.94,81.09,52.27,111.73,52.27a70.41,70.41,0,0,0,34.12-8.55l.21-.12c15.65-9,25-20.55,29.91-39.29.74-2.92,1.41-6,1.91-9.31a225.76,225.76,0,0,0,2.5-36.91Z" style="fill:#37474f"/><path d="M183.77,420c-54.56-43.16-76.33-77.88-76.33-77.88L31.83,389.27s21.83,34.71,76.33,77.9c59.73,47.26,103.42,60.3,135.49,42.86,12.1-7,20.54-15.38,25.21-32.71a74.73,74.73,0,0,0,1.91-9.24C246.5,462.64,217.74,446.84,183.77,420Z" style="fill:#263238"/><path d="M191.18,496.52V506.8s-50.1-18.13-110.69-73.32S0,311,0,265.72s12-65.85,26.28-68.14L27.79,207c-8.33,1.32-18.25,17.54-18.25,58.72,0,21.17,5.59,95.29,77.38,160.7C136.56,471.63,179.31,491.52,191.18,496.52Z" style="fill:#37474f"/><path d="M191.18,506.8a265.26,265.26,0,0,1-36.4-17.9c-11.69-6.79-23-14.25-34-22.17S99.25,450.31,89,441.5l-7.64-6.7c-2.54-2.25-4.92-4.68-7.38-7-5-4.58-9.54-9.7-14.12-14.62a270.7,270.7,0,0,1-24.37-32.44,255,255,0,0,1-18.72-36.05A206.52,206.52,0,0,1,0,265.74a190.86,190.86,0,0,0,4.92,40.19,222.88,222.88,0,0,0,12.39,38.55A256.37,256.37,0,0,0,36.16,380.3a273.3,273.3,0,0,0,24.39,32.29c4.64,4.92,9,10,14,14.62,2.44,2.32,4.81,4.73,7.33,7l7.63,6.74c10.23,8.83,20.7,17.4,31.68,25.3s22.21,15.44,33.85,22.29A269.31,269.31,0,0,0,191.18,506.8Z"/><path d="M159.33,384.63c-71.8-65.42-77.39-139.56-77.39-160.72,0-31.52,14.75-43.16,22.12-50.28a12.36,12.36,0,0,1,6.43-3.72L109,160.48a22.5,22.5,0,0,0-12.44,7.19,49.58,49.58,0,0,0-9.73,15.92L27.79,207c-8.33,1.32-18.25,17.54-18.25,58.72,0,21.17,5.59,95.29,77.38,160.7,49.62,45.21,92.39,65.1,104.26,70.1l62.15-35.88c6.56,3,10.25,4.37,10.25,4.37V454.72C251.71,449.67,209,429.84,159.33,384.63Z" style="fill:#263238"/><path d="M27.78,207a8.1,8.1,0,0,1,8.82,5.73V200.5s-2.65-3.82-10.32-2.94Z" style="fill:#37474f"/><path d="M263.58,454.72V465l-72.4,41.79V496.52l62.15-35.88Z"/><path d="M61.31,415.54l-5.47-4.8s-3.19,7.63-5.73,14.12c-1.39,3.62-1.09,6.66.15,8l.25.23,45.63,40.74,5.19-22.44Z" style="fill:#263238"/><path d="M100,472.85l2.25,1.8c-2.4,2.48-5.34-.19-6.18-.81-1.53-1.08-2-4.35-.52-8.33,2.52-6.55,5.73-14.13,5.73-14.13l84.42-48.45a1.83,1.83,0,0,1,.91-.25,1.79,1.79,0,0,1,1.8,1.82v4.56l-81.52,46.81Z"/><path d="M142.57,362.72a1.84,1.84,0,0,0-.48-.44,2,2,0,0,0-1-.25,2,2,0,0,0-.95.25L55.76,410.75l45.46,40.65,86.64-48.13Z" style="fill:#37474f"/><path d="M326,194,211.25,127.54c-18.91-10.9-49.61-10.9-68.45,0L50.74,180.71c-9.54,5.45-14.16,12.59-14.14,19.75v30.3c0,7.12,4.73,14.22,14.14,19.66l114.79,66.41c18.89,10.91,49.62,10.91,68.43,0L326,263.68c9.18-5.3,13.89-12.19,14.14-19.08.21-5.48,0-25.59,0-30.84C340.2,206.62,335.48,199.47,326,194Z" style="fill:#263238"/><path d="M36.6,200.51,36.83,224v5.9a18,18,0,0,0,.78,5.73,22.4,22.4,0,0,0,6.4,9.54,47.47,47.47,0,0,0,9.63,6.56l10.21,5.86,20.4,11.72,40.67,23.72,20.32,11.85,20.27,12L145,305.32,124.59,293.6,83.78,270.17,63.45,258.32,53.28,252.4a47.7,47.7,0,0,1-9.69-6.73,22.92,22.92,0,0,1-6.49-9.83,18,18,0,0,1-.78-5.88v-5.9Z"/><path d="M199.74,265.72v59.35c12.39,0,24.81-2.73,34.22-8.19L326,263.74c9.18-5.31,13.89-12.2,14.14-19.09.21-5.47,0-25.59,0-30.83,0-7.16-4.7-14.32-14.16-19.77l-23.91-13.92Z" style="fill:#37474f"/><path d="M50.74,180.76,142.8,127.6c18.91-10.9,49.62-10.9,68.45,0L326,194c18.91,10.92,18.91,28.63,0,39.52L234,286.62c-18.89,10.91-49.62,10.91-68.43,0L50.74,220.21C31.83,209.37,31.83,191.68,50.74,180.76Z" style="fill:#455a64"/><path d="M199.74,285c-11,0-21.71-2.5-29.29-6.87L55.68,211.72c-5.87-3.38-9.23-7.48-9.23-11.2s3.36-7.81,9.23-11.21l92-53.14c7.63-4.37,18.22-6.87,29.27-6.87s21.74,2.5,29.29,6.87L321,202.58c5.86,3.37,9.23,7.46,9.23,11.2s-3.37,7.8-9.23,11.2l-92.08,53.15C221.48,282.5,210.79,285,199.74,285Z" style="fill:#263238"/><path d="M152.11,296.52a3.38,3.38,0,0,1-1.73-.47l-88-50.92a3.5,3.5,0,0,1-1.61-2.1,3.37,3.37,0,0,1-.09-1.34,3.59,3.59,0,0,1,.43-1.28,3.49,3.49,0,0,1,.89-1,3.51,3.51,0,0,1,2.56-.68,3.47,3.47,0,0,1,1.28.43l88,50.91a3.47,3.47,0,0,1,1.6,3.89,3.46,3.46,0,0,1-3.32,2.58Z" style="fill:#37474f"/><g style="opacity:0.30000001192092896"><path d="M115.32,179.18a25.61,25.61,0,0,0-5.19,16.26c0,1.51,2.56,2.58,5.08,2.19,1.77-.26,3.05-1.2,3-2.25a22.73,22.73,0,0,1,4.49-14.29c.76-1.07.23-2.39-1.49-3a5.63,5.63,0,0,0-5.88,1.09Z" style="fill:#fff;opacity:0.30000001192092896;isolation:isolate"/><path d="M202.57,161.7a6.3,6.3,0,0,0,4.37-.51,2.78,2.78,0,0,0,.9-.77c.84-1.2-.16-2.56-2.22-3-25.91-6.11-55.34-2.69-75.21,8.74l-.15.09c-1.56.9-1.51,2.33,0,3.25a6.46,6.46,0,0,0,5.73,0C153.6,159.32,179.69,156.28,202.57,161.7Z" style="fill:#fff;opacity:0.30000001192092896;isolation:isolate"/><path d="M222.42,166a1.75,1.75,0,0,0-.84.65,1.7,1.7,0,0,0-.32,1,1.73,1.73,0,0,0,.32,1,1.67,1.67,0,0,0,.84.64l.19.12c17.55,10.11,22.76,25.23,13.35,38.45-.85,1.2.14,2.56,2.2,3.06a6.42,6.42,0,0,0,4.39-.52,2.91,2.91,0,0,0,.88-.76c10.72-15,4.81-32.06-15-43.53l-.21-.12a6.27,6.27,0,0,0-5.76,0Z" style="fill:#fff;opacity:0.30000001192092896;isolation:isolate"/></g><path d="M119.73,222c-5.17,0-10.65-.55-14.94-3.07a6.39,6.39,0,0,1-3.61-5.06c-.1-2.27,1-4,3.63-5.72a18.12,18.12,0,0,1,12.1-2.44c-.64-2.87.91-5.29,4.59-7.22a17.23,17.23,0,0,1,8.74-1.9,16.81,16.81,0,0,1,7.9,1.9,10.17,10.17,0,0,1,4.61,4.6,10.06,10.06,0,0,1,.85,6.45,23.21,23.21,0,0,1-2,7.25l-1.07,3.36-5.57.59a104.62,104.62,0,0,1-12.12,1.15C121.83,222,120.78,222,119.73,222Zm-5.52-14.48a14.92,14.92,0,0,0-8.37,2.29c-2.5,1.58-2.81,2.82-2.75,3.93a4.58,4.58,0,0,0,.88,2.12,4.63,4.63,0,0,0,1.79,1.43c4.75,2.77,11.28,2.94,17,2.75a109.15,109.15,0,0,0,12-1.13l4.37-.46.72-2.27a22.21,22.21,0,0,0,1.91-6.77,8.29,8.29,0,0,0-4.5-9.2,15.08,15.08,0,0,0-7-1.7,15.62,15.62,0,0,0-7.82,1.74c-4.31,2.25-4,4.43-3.21,6.26l.73,1.6-1.74-.27A27.15,27.15,0,0,0,114.21,207.5Z" style="fill:#ba68c8"/><path d="M165,253.32a4.21,4.21,0,0,1-1.57-.59l-.61-.37a2.28,2.28,0,0,1-1.05-.89c-.09-.25,0-.5.42-.71l5.92-3.41-24.22-14-5.4,4.25a2.29,2.29,0,0,1-1.78,0,10.37,10.37,0,0,1-2.19-1c-.53-.31-.57-.69-.1-1.15l7.75-6.87a3.6,3.6,0,0,1,1.4-.45,2.17,2.17,0,0,1,1.26.11L173,244.56l4.9-2.82a1.88,1.88,0,0,1,1.24-.25,4.12,4.12,0,0,1,1.55.59l.63.36a2.36,2.36,0,0,1,1,.9c.1.25,0,.49-.42.7l-15.74,9.07A1.91,1.91,0,0,1,165,253.32Z" style="fill:#fafafa"/><path d="M190.47,239a23.6,23.6,0,0,1-4.45,1.28,4.59,4.59,0,0,1-2.86-.14,2.41,2.41,0,0,1-1-1.37c-.23-.65-.17-1.07.13-1.26a7.45,7.45,0,0,1,1.53-.38,30.09,30.09,0,0,0,3.28-.78,14.86,14.86,0,0,0,3-1.32,4.72,4.72,0,0,0,1.7-1.3,4.62,4.62,0,0,0,1-1.91c.21-1.24-.74-2.46-2.86-3.68a10.88,10.88,0,0,0-6-1.62,13.29,13.29,0,0,0-6,1.91L176,229.46a1.86,1.86,0,0,1-1.24.25,4.08,4.08,0,0,1-1.57-.61l-.61-.34c-.59-.35-.93-.65-1-.9s0-.48.44-.69l1.57-.91A4.56,4.56,0,0,0,175.8,224a2.78,2.78,0,0,0,.11-1.18,2.62,2.62,0,0,0-.44-1.11,5.43,5.43,0,0,0-1.91-1.78,9,9,0,0,0-4.18-1.14,9.28,9.28,0,0,0-4.94,1.37,7.15,7.15,0,0,0-3.07,3,2.63,2.63,0,0,1-.57.82,4,4,0,0,1-2.18,0,6.77,6.77,0,0,1-2.42-.63q-1.19-.69.51-2.58a17.71,17.71,0,0,1,4.32-3.43,18.6,18.6,0,0,1,8.77-2.56,15.47,15.47,0,0,1,8.46,2.08,5.39,5.39,0,0,1,1.8,1.3,5.46,5.46,0,0,1,1.14,1.91,4.3,4.3,0,0,1,0,1.82,4.14,4.14,0,0,1-.83,1.63l.17.1a18.79,18.79,0,0,1,7.19-.65,18.2,18.2,0,0,1,7.39,2.34,9.26,9.26,0,0,1,4,3.82,4.18,4.18,0,0,1,.41,2,4.23,4.23,0,0,1-.62,2,10.42,10.42,0,0,1-4,3.61A34.11,34.11,0,0,1,190.47,239Z" style="fill:#fafafa"/><path d="M211.92,226.53a18.55,18.55,0,0,1-4,1,4.23,4.23,0,0,1-2.46-.23,2.34,2.34,0,0,1-1-1.39c-.21-.67-.17-1.09.15-1.28a5,5,0,0,1,1.32-.33c1.2-.21,2.29-.47,3.28-.74a13,13,0,0,0,3.05-1.34,3.67,3.67,0,0,0,2.31-3.26c0-1.26-1.07-2.46-3.05-3.63a12.13,12.13,0,0,0-6.3-1.66,13.87,13.87,0,0,0-6.62,2l-3.82,2.19a2.91,2.91,0,0,1-1.52.46,3.37,3.37,0,0,1-1.51-.52l-13-8.47c-.51-.32-.76-.63-.76-.92s.27-.59.8-.91l12-6.93a1.93,1.93,0,0,1,1.22-.25,4.39,4.39,0,0,1,1.57.59l.76.44c.54.33.84.6.92.84s0,.48-.44.69l-9,5.25,8.32,5.46,1.7-1a22.45,22.45,0,0,1,9.77-2.94,18.77,18.77,0,0,1,10.8,2.81c3.67,2.1,5.31,4.22,4.93,6.3a8.82,8.82,0,0,1-1.81,3.35,8.93,8.93,0,0,1-3.06,2.28A25.44,25.44,0,0,1,211.92,226.53Z" style="fill:#fafafa"/><path d="M202.49,268.11l-3-1.7-5.05,2.92a1.47,1.47,0,0,1-.88,0,5,5,0,0,1-1.07-.38,1,1,0,0,1-.19-.17l-4.29-8.73c0-.21.11-.45.59-.74l.61-.34a1.31,1.31,0,0,1,.65-.28,1.21,1.21,0,0,1,.7.11l9.3,5.36,1-.59a.88.88,0,0,1,.55-.12,1.87,1.87,0,0,1,.71.27l.28.17a1,1,0,0,1,.46.4.3.3,0,0,1-.19.33l-1,.59,2.94,1.7q.54.31-.27.78l-.53.32a1.36,1.36,0,0,1-.67.24A1.5,1.5,0,0,1,202.49,268.11Zm-4.79-2.75-3.66-2.1a19.09,19.09,0,0,1-2.48-1.7h-.14l2.89,5.73Z" style="fill:#e0e0e0"/><path d="M207.22,265.47a3.76,3.76,0,0,1-.95-.4.61.61,0,0,1-.29-.23l-2.11-6.92a5.51,5.51,0,0,0-.61-1.43,3,3,0,0,0-1-.82,3.63,3.63,0,0,0-2.06-.5,4.64,4.64,0,0,0-2.12.61,3.27,3.27,0,0,0-1,.84,5.19,5.19,0,0,0-.52,1c0,.23-.09.37-.19.4a1.59,1.59,0,0,1-1,0,3,3,0,0,1-1-.26.67.67,0,0,1-.29-.37.59.59,0,0,1,0-.47,3.29,3.29,0,0,1,.87-1.24,7.53,7.53,0,0,1,1.51-1.13,8.93,8.93,0,0,1,4.08-1.22,7,7,0,0,1,3.82.9,4.77,4.77,0,0,1,1.18.91,3.77,3.77,0,0,1,.75,1.26,15.76,15.76,0,0,1,.63,2.16l1.52,4.5,5.18-3a.88.88,0,0,1,.55-.12,2.27,2.27,0,0,1,.71.27l.26.15a.94.94,0,0,1,.48.42.3.3,0,0,1-.19.32l-7.52,4.34A1.14,1.14,0,0,1,207.22,265.47Z" style="fill:#e0e0e0"/><path d="M208.5,254.62l-1.56-.92c-.36-.21-.23-.5.4-.84l.48-.29a1.49,1.49,0,0,1,1.49-.23l1.56.9c.36.21.21.5-.4.86l-.48.27C209.36,254.75,208.87,254.83,208.5,254.62Zm8.69,5-1.57-.9c-.35-.22-.22-.5.4-.86l.48-.27c.63-.36,1.13-.44,1.47-.25l1.58.92c.35.21.21.5-.42.86l-.47.27C218,259.75,217.55,259.83,217.19,259.62Z" style="fill:#e0e0e0"/><path d="M223.41,256.56a11.11,11.11,0,0,1-2,.59,2.06,2.06,0,0,1-1.3,0,1,1,0,0,1-.46-.61V256a2.33,2.33,0,0,1,.69-.17c.53-.12,1-.23,1.49-.36a8.12,8.12,0,0,0,1.35-.59,2.3,2.3,0,0,0,.78-.6,2.24,2.24,0,0,0,.44-.87c.1-.56-.34-1.11-1.3-1.66a5,5,0,0,0-2.74-.75,6.28,6.28,0,0,0-2.73.88l-.84.48a.84.84,0,0,1-.56.11,1.91,1.91,0,0,1-.72-.27l-.27-.17c-.28-.15-.43-.28-.46-.4a.27.27,0,0,1,.19-.3l.71-.42a2,2,0,0,0,.62-.43,1.81,1.81,0,0,0,.41-.62,1.17,1.17,0,0,0-.13-1.05,2.75,2.75,0,0,0-.9-.8,4.14,4.14,0,0,0-1.91-.52,4.37,4.37,0,0,0-2.25.63,3.38,3.38,0,0,0-.93.71,3.72,3.72,0,0,0-.46.66,1.36,1.36,0,0,1-.27.39,2.27,2.27,0,0,1-1,0,3.87,3.87,0,0,1-1.11-.29c-.36-.21-.29-.59.23-1.17a7.38,7.38,0,0,1,1.91-1.56,8.48,8.48,0,0,1,4-1.16,7.16,7.16,0,0,1,3.81.93,2.56,2.56,0,0,1,.82.6,2.49,2.49,0,0,1,.52.87,1.79,1.79,0,0,1,0,.83,1.93,1.93,0,0,1-.38.74h.09a8.15,8.15,0,0,1,3.36-.35,8,8,0,0,1,3.36,1.07,4.24,4.24,0,0,1,1.91,1.74,1.92,1.92,0,0,1,.18.92,1.9,1.9,0,0,1-.28.89,4.62,4.62,0,0,1-1.81,1.64A14.33,14.33,0,0,1,223.41,256.56Z" style="fill:#e0e0e0"/><path d="M233.14,250.91a7.37,7.37,0,0,1-1.91.44,1.79,1.79,0,0,1-1.12-.09,1.21,1.21,0,0,1-.46-.63,1,1,0,0,1,0-.57,1.53,1.53,0,0,1,.59-.16c.55-.09,1-.23,1.49-.34a5.76,5.76,0,0,0,1.39-.61,1.63,1.63,0,0,0,.74-.58,1.6,1.6,0,0,0,.31-.89c0-.57-.49-1.13-1.39-1.64a5.46,5.46,0,0,0-2.86-.77,6.24,6.24,0,0,0-3,.92l-1.72,1a1.36,1.36,0,0,1-.68.21,1.29,1.29,0,0,1-.69-.23l-5.9-3.81c-.23-.16-.34-.29-.34-.42s.13-.27.36-.4l5.46-3.15a.72.72,0,0,1,.27-.12.76.76,0,0,1,.3,0,2.27,2.27,0,0,1,.71.27l.34.19c.25.15.38.27.42.38s0,.23-.21.33l-4.12,2.38,3.82,2.48.78-.45a9.91,9.91,0,0,1,4.43-1.34,8.72,8.72,0,0,1,4.9,1.28c1.67.95,2.41,1.91,2.23,2.86a4.13,4.13,0,0,1-.82,1.53,4,4,0,0,1-1.39,1A12.58,12.58,0,0,1,233.14,250.91Z" style="fill:#e0e0e0"/><path d="M241,245.9l-1.57-.9c-.37-.22-.23-.5.4-.86l.48-.27c.64-.37,1.13-.44,1.49-.23l1.56.9c.36.21.21.5-.42.86l-.46.27A1.46,1.46,0,0,1,241,245.9Z" style="fill:#e0e0e0"/><path d="M245,243.72a4.08,4.08,0,0,1-1-.38c-.17-.1-.25-.17-.27-.23l-2.14-7a4.11,4.11,0,0,0-.61-1.41,2.51,2.51,0,0,0-.95-.82,3.86,3.86,0,0,0-2-.52,4.75,4.75,0,0,0-2.12.63,3.23,3.23,0,0,0-1,.84,5.49,5.49,0,0,0-.5,1,.63.63,0,0,1-.19.4,1.92,1.92,0,0,1-1,0,2.94,2.94,0,0,1-1-.25.6.6,0,0,1-.29-.37.63.63,0,0,1,0-.47,3.46,3.46,0,0,1,.86-1.24,8,8,0,0,1,1.51-1.15,8.83,8.83,0,0,1,4.1-1.2,7.08,7.08,0,0,1,3.82.88,4.85,4.85,0,0,1,1.18.93,4,4,0,0,1,.74,1.26,20.86,20.86,0,0,1,.63,2.14l1.53,4.51,5.17-3a.84.84,0,0,1,.56-.14,2.1,2.1,0,0,1,.68.27l.29.17a1.24,1.24,0,0,1,.48.4.3.3,0,0,1-.21.33l-7.52,4.35A.7.7,0,0,1,245,243.72Z" style="fill:#e0e0e0"/><path d="M358.38,391c0,24.66-3.49,42.64-10,55.71-12.2,24.31-33.67,32.82-53.65,44.6-26,15.26-41.14,24.08-45.15,26.37,22.52-13.36,33.28-32.56,33.28-84.88,0-61.3-12.92-84.62-23.26-99.24-9.54-13.35-23.24-20.85-38.76-20.85l116.28-67.22c-3.82,3.82-8,11.19-2.5,25.4S358.38,312.36,358.38,391Z" style="fill:#263238"/><path d="M259.59,333.51a47.46,47.46,0,0,0-29.24-19.89,46.24,46.24,0,0,0-9.54-1v9.54c12.33,0,23.32,6,31,16.81,9.81,13.93,21.51,35.52,21.51,93.78h9.54C282.83,374.55,271.71,350.66,259.59,333.51Z" style="fill:#37474f"/></g></g></svg>